<svg width="20" height="18" viewBox="0 0 20 18" fill="none" xmlns="http://www.w3.org/2000/svg">
<path d="M8.06516 1.25C8.83496 -0.0833333 10.7595 -0.0833333 11.5293 1.25L19.3235 14.75C20.0933 16.0833 19.131 17.75 17.5914 17.75H2.00298C0.463383 17.75 -0.498867 16.0833 0.270933 14.75L8.06516 1.25Z" fill="#F1534B"/>
<path fill-rule="evenodd" clip-rule="evenodd" d="M10 4C10.8284 4 11.5 4.67157 11.5 5.5V10.5C11.5 11.3284 10.8284 12 10 12C9.17157 12 8.5 11.3284 8.5 10.5V5.5C8.5 4.67157 9.17157 4 10 4Z" fill="white"/>
<path fill-rule="evenodd" clip-rule="evenodd" d="M10 13C10.8284 13 11.5 13.6716 11.5 14.5C11.5 15.3284 10.8284 16 10 16C9.17157 16 8.5 15.3284 8.5 14.5C8.5 13.6716 9.17157 13 10 13Z" fill="white"/>
</svg>
