<svg xmlns="http://www.w3.org/2000/svg" xmlns:xlink="http://www.w3.org/1999/xlink" width="136" height="136" viewBox="0 0 136 136">
  <defs>
    <linearGradient id="linear-gradient" x1="0.5" x2="0.5" y2="1" gradientUnits="objectBoundingBox">
      <stop offset="0" stop-color="#ef0"/>
      <stop offset="1" stop-color="#ffd500"/>
    </linearGradient>
  </defs>
  <g id="Group_1595" data-name="Group 1595" transform="translate(-899 -373)">
    <circle id="Ellipse_82" data-name="Ellipse 82" cx="68" cy="68" r="68" transform="translate(899 373)" opacity="0.1"/>
    <circle id="Ellipse_82-2" data-name="Ellipse 82" cx="54" cy="54" r="54" transform="translate(913 387)" opacity="0.3"/>
    <circle id="Ellipse_82-3" data-name="Ellipse 82" cx="39" cy="39" r="39" transform="translate(928 402)"/>
    <g id="logo" transform="translate(941.218 418.57)">
      <path id="Rectangle_779" data-name="Rectangle 779" d="M553.717,188.133,566.9,174.954h0l22.386,22.386h0l-22.474,22.474h0l-13.091-13.092A13.144,13.144,0,0,1,553.717,188.133Z" transform="translate(-537.718 -174.954)" fill="#265fff"/>
      <path id="Rectangle_780" data-name="Rectangle 780" d="M477.83,181.682l6.728-6.728h0l22.386,22.386h0L484.47,219.814h0l-6.64-6.64A22.268,22.268,0,0,1,477.83,181.682Z" transform="translate(-471.308 -174.954)" fill="#ffd300"/>
      <path id="Intersection_22" data-name="Intersection 22" d="M553.26,250.145a12.99,12.99,0,0,1,0-18.37h0l5.325-5.325,14.422,14.422-14.51,14.51Z" transform="translate(-537.37 -218.486)" fill="#ffe980"/>
    </g>
    <g id="Rectangle_5909" data-name="Rectangle 5909" transform="translate(943 473)" fill="rgba(180,102,44,0.25)" stroke="#e5bb4f" stroke-width="1">
      <rect width="48" height="20" rx="8" stroke="none"/>
      <rect x="0.5" y="0.5" width="47" height="19" rx="7.5" fill="none"/>
    </g>
    <path id="Headline_4" data-name="Headline 4" d="M.392,0V-.242L1.219-.3V-7.369L.392-7.423v-.242H3.309A4.477,4.477,0,0,1,4.4-7.538a3.083,3.083,0,0,1,.905.381,1.794,1.794,0,0,1,.631.682,2.059,2.059,0,0,1,.228.986,2.368,2.368,0,0,1-.175.929,2.019,2.019,0,0,1-.47.693A2.511,2.511,0,0,1,4.81-3.4a3.809,3.809,0,0,1-.881.269,5.585,5.585,0,0,1-.986.083q-.113,0-.349-.011V-.3l.827.054V0Zm2.2-3.368q.188.016.381.016,1.762,0,1.762-2.148a2.929,2.929,0,0,0-.118-.889,1.272,1.272,0,0,0-.341-.569,1.363,1.363,0,0,0-.494-.29,2,2,0,0,0-.62-.089,4.113,4.113,0,0,0-.569.043ZM6.816,0V-.242L7.643-.3V-7.369l-.827-.054v-.242H9.679a5.2,5.2,0,0,1,1.077.1,2.891,2.891,0,0,1,.859.322,1.54,1.54,0,0,1,.585.594,1.8,1.8,0,0,1,.207.884,1.758,1.758,0,0,1-.618,1.431,3.291,3.291,0,0,1-1.67.663v.011a2.062,2.062,0,0,1,.781.145,1.46,1.46,0,0,1,.526.357,2.653,2.653,0,0,1,.373.561q.118.236.336.722t.432.862a1.811,1.811,0,0,0,.36.473.917.917,0,0,0,.317.2,1.057,1.057,0,0,0,.3.038V0h-.892A3.2,3.2,0,0,1,12-.051a1.112,1.112,0,0,1-.47-.244,1.761,1.761,0,0,1-.416-.534q-.183-.341-.623-1.426-.064-.161-.185-.416a3.112,3.112,0,0,0-.209-.387,3.419,3.419,0,0,0-.209-.277.775.775,0,0,0-.247-.207A.6.6,0,0,0,9.378-3.6q-.236,0-.36.005V-.3l.827.054V0Zm2.2-3.9q.059.005.22.005a1.674,1.674,0,0,0,1.345-.465,2.119,2.119,0,0,0,.389-1.388,2.442,2.442,0,0,0-.11-.784,1.126,1.126,0,0,0-.314-.5,1.228,1.228,0,0,0-.451-.252,1.938,1.938,0,0,0-.564-.075,3.816,3.816,0,0,0-.516.043Zm4.759.1a5.007,5.007,0,0,1,.4-2.02A3.487,3.487,0,0,1,15.343-7.3a2.956,2.956,0,0,1,1.775-.556,3.073,3.073,0,0,1,2.441,1.069,4.128,4.128,0,0,1,.927,2.8,5.923,5.923,0,0,1-.126,1.23,4.653,4.653,0,0,1-.395,1.131,3.807,3.807,0,0,1-.653.935,2.8,2.8,0,0,1-.943.636A3.1,3.1,0,0,1,17.15.188a3.027,3.027,0,0,1-2.473-1.1A4.427,4.427,0,0,1,13.777-3.808Zm1.439-.118a8.005,8.005,0,0,0,.209,1.909,3.413,3.413,0,0,0,.647,1.38,1.317,1.317,0,0,0,1.045.529,1.569,1.569,0,0,0,1.415-1.047,6.374,6.374,0,0,0,.513-2.782,5.757,5.757,0,0,0-.5-2.712,1.54,1.54,0,0,0-1.394-.908,1.411,1.411,0,0,0-.594.129,1.577,1.577,0,0,0-.529.414,2.635,2.635,0,0,0-.424.7,4.657,4.657,0,0,0-.282,1.029A8.091,8.091,0,0,0,15.216-3.926Z" transform="translate(964 487)" fill="#fff"/>
    <path id="gem" d="M-1150.983,1522.788h2.948l2.343,7.229-.02.026Zm3.81,0h2.368l-.008-.009h.042l-.008.009h2.354l-2.373,7.187-.032.042Zm5.609,0h2.948l-5.323,7.187Zm1.523-.783h-1.523l0-.009h-2.348l2.668-3,.058.065v0l2.59,2.907-.023.031Zm-7.313-3h2.349l0-.009h2.948l.023.031-2.591,2.909-.057.065Zm-2.188,3h-1.44l-.017-.023,2.6-2.917.058-.066,2.669,3h-2.363l0,.008Z" transform="translate(2100 -1041)" fill="url(#linear-gradient)"/>
  </g>
</svg>
