<svg width="1953" height="385" viewBox="0 0 1953 385" fill="none" xmlns="http://www.w3.org/2000/svg">
<g clip-path="url(#clip0_6110_851)">
<path d="M912.52 384.001V206.431C911.855 201.487 911.521 196.504 911.52 191.515C911.516 184.032 912.269 176.568 913.768 169.237C915.221 162.127 917.379 155.18 920.211 148.498C922.987 141.925 926.398 135.639 930.396 129.729C934.361 123.858 938.879 118.382 943.889 113.374C948.898 108.366 954.375 103.848 960.244 99.8809C966.156 95.8857 972.442 92.4743 979.014 89.6948C985.697 86.863 992.646 84.7051 999.758 83.2529C1007.09 81.7567 1014.55 81.0029 1022.03 81.0029C1029.51 81.0033 1036.97 81.7571 1044.3 83.2529C1051.41 84.7054 1058.36 86.8633 1065.04 89.6948C1071.61 92.4747 1077.89 95.8861 1083.8 99.8809C1089.67 103.849 1095.15 108.367 1100.16 113.374C1105.17 118.381 1109.69 123.858 1113.65 129.729C1117.65 135.64 1121.06 141.926 1123.84 148.498C1126.66 155.181 1128.82 162.128 1130.28 169.237C1131.77 176.568 1132.52 184.033 1132.52 191.515C1132.52 198.994 1131.77 206.453 1130.28 213.781C1128.82 220.89 1126.66 227.838 1123.84 234.521C1121.06 241.093 1117.64 247.379 1113.65 253.29C1109.68 259.16 1105.17 264.637 1100.16 269.645C1095.15 274.653 1089.67 279.171 1083.8 283.137C1077.89 287.132 1071.61 290.545 1065.04 293.329C1058.35 296.152 1051.41 298.306 1044.3 299.761C1036.97 301.256 1029.51 302.01 1022.03 302.011C1014.55 302.01 1007.09 301.257 999.758 299.761C992.648 298.306 985.699 296.152 979.014 293.329C973.283 290.899 967.766 287.991 962.521 284.637V384.001H912.52ZM999.479 135.757C995.878 137.278 992.435 139.148 989.199 141.34C985.984 143.51 982.984 145.983 980.24 148.724C977.501 151.469 975.028 154.467 972.855 157.679C970.67 160.916 968.802 164.357 967.277 167.953C964.125 175.407 962.507 183.419 962.521 191.512C962.508 199.601 964.125 207.61 967.277 215.059C968.801 218.656 970.669 222.096 972.855 225.333C975.028 228.545 977.501 231.544 980.24 234.288C982.984 237.031 985.984 239.505 989.199 241.677C992.437 243.865 995.879 245.733 999.479 247.255C1006.93 250.411 1014.93 252.029 1023.02 252.012C1031.11 252.029 1039.12 250.411 1046.57 247.255C1050.17 245.73 1053.61 243.862 1056.85 241.677C1060.06 239.507 1063.06 237.033 1065.8 234.288C1068.55 231.546 1071.02 228.547 1073.19 225.333C1075.38 222.096 1077.25 218.655 1078.77 215.059C1081.92 207.61 1083.54 199.601 1083.52 191.512C1083.54 183.419 1081.92 175.406 1078.77 167.953C1077.24 164.357 1075.38 160.917 1073.19 157.679C1071.02 154.465 1068.55 151.466 1065.8 148.724C1063.06 145.981 1060.06 143.508 1056.85 141.34C1053.61 139.151 1050.17 137.281 1046.57 135.757C1039.12 132.603 1031.11 130.987 1023.02 131.006C1014.93 130.988 1006.93 132.606 999.479 135.761V135.757ZM1668.65 299.752C1661.54 298.301 1654.6 296.148 1647.91 293.326C1641.34 290.542 1635.06 287.126 1629.14 283.126C1623.28 279.161 1617.8 274.645 1612.79 269.639C1607.78 264.632 1603.26 259.155 1599.3 253.284C1595.3 247.373 1591.89 241.087 1589.11 234.515C1586.28 227.831 1584.12 220.882 1582.67 213.77C1581.17 206.445 1580.42 198.986 1580.42 191.509C1580.42 184.026 1581.17 176.562 1582.67 169.231C1584.12 162.121 1586.28 155.174 1589.11 148.492C1591.88 141.917 1595.3 135.628 1599.3 129.718C1603.26 123.849 1607.78 118.374 1612.79 113.368C1617.8 108.357 1623.28 103.839 1629.15 99.875C1635.06 95.8785 1641.34 92.4656 1647.92 89.6841C1654.6 86.8568 1661.55 84.7006 1668.65 83.2471C1675.98 81.7544 1683.44 81.0019 1690.92 81.001C1698.4 81.0034 1705.86 81.7588 1713.19 83.2559C1720.3 84.708 1727.25 86.8643 1733.93 89.6929C1740.5 92.4752 1746.79 95.8881 1752.71 99.8838C1758.57 103.852 1764.05 108.37 1769.06 113.377C1774.07 118.382 1778.58 123.858 1782.54 129.727C1786.54 135.639 1789.96 141.927 1792.74 148.501C1795.56 155.184 1797.72 162.131 1799.17 169.24C1800.67 176.571 1801.42 184.036 1801.42 191.518C1801.42 198.995 1800.67 206.453 1799.17 213.779C1799.09 214.184 1799 214.595 1798.92 215.01H1730.43L1730.42 215.016H1635.16L1635.16 215.032L1635.17 215.059C1636.7 218.658 1638.56 222.101 1640.75 225.339C1642.93 228.55 1645.4 231.549 1648.14 234.294C1650.88 237.037 1653.88 239.509 1657.1 241.678C1660.33 243.864 1663.77 245.734 1667.37 247.261C1674.82 250.413 1682.83 252.032 1690.92 252.018C1699.01 252.032 1707.02 250.414 1714.47 247.261C1718.07 245.738 1721.51 243.868 1724.74 241.678C1726.86 240.254 1728.88 238.696 1730.8 237.014H1791.64C1789.08 242.689 1786.03 248.135 1782.54 253.293C1778.58 259.163 1774.06 264.64 1769.06 269.648C1764.05 274.654 1758.57 279.17 1752.7 283.135C1746.79 287.133 1740.5 290.549 1733.93 293.335C1727.25 296.161 1720.3 298.314 1713.19 299.761C1705.86 301.258 1698.4 302.013 1690.92 302.016C1683.44 302.01 1675.98 301.252 1668.65 299.755V299.752ZM1667.37 135.752C1663.78 137.28 1660.33 139.152 1657.1 141.341C1653.88 143.508 1650.88 145.978 1648.14 148.719C1645.4 151.464 1642.93 154.462 1640.75 157.674C1638.57 160.913 1636.7 164.355 1635.18 167.953C1635.04 168.26 1634.9 168.626 1634.74 169.004H1747.11C1747.07 168.922 1747.04 168.835 1747.01 168.753L1746.95 168.632C1746.86 168.408 1746.77 168.178 1746.67 167.953C1745.15 164.356 1743.28 160.914 1741.09 157.674C1738.92 154.461 1736.45 151.462 1733.71 148.719C1730.97 145.975 1727.97 143.504 1724.75 141.341C1721.52 139.149 1718.07 137.277 1714.48 135.752C1707.02 132.601 1699.01 130.985 1690.92 131.001C1682.83 130.987 1674.82 132.604 1667.37 135.755V135.752ZM1544.52 302.01C1539.17 302.011 1533.84 301.472 1528.6 300.401C1523.52 299.36 1518.55 297.819 1513.77 295.801C1509.07 293.813 1504.58 291.373 1500.35 288.515C1496.15 285.68 1492.24 282.45 1488.66 278.87C1485.08 275.288 1481.85 271.374 1479.01 267.179C1476.16 262.953 1473.71 258.46 1471.72 253.763C1469.71 248.983 1468.16 244.014 1467.12 238.93C1466.06 233.692 1465.52 228.359 1465.53 223.013V215.013H1465.51V0.000976562H1515.52V81.0098H1562.52V131.01H1515.52V169.01H1515.73V226.01C1515.72 229.486 1516.42 232.928 1517.77 236.131C1519.08 239.219 1520.97 242.026 1523.34 244.396C1525.71 246.769 1528.52 248.661 1531.61 249.968C1534.81 251.32 1538.25 252.015 1541.73 252.01H1562.52V302.01H1544.52ZM1322.22 299.76C1315.11 298.303 1308.17 296.147 1301.48 293.323C1294.91 290.543 1288.63 287.132 1282.72 283.136C1276.85 279.169 1271.37 274.648 1266.36 269.636C1261.35 264.629 1256.83 259.155 1252.87 253.286C1248.87 247.376 1245.46 241.09 1242.68 234.517C1239.85 227.833 1237.7 220.883 1236.24 213.772C1234.75 206.444 1233.99 198.984 1234 191.505C1233.99 184.026 1234.75 176.566 1236.24 169.238C1237.7 162.126 1239.85 155.178 1242.68 148.493C1245.46 141.919 1248.87 135.633 1252.87 129.724C1256.83 123.854 1261.35 118.377 1266.36 113.369C1271.37 108.36 1276.85 103.839 1282.72 99.8691C1288.63 95.876 1294.91 92.4647 1301.48 89.6831C1308.17 86.861 1315.12 84.7049 1322.22 83.2461C1329.55 81.7525 1337.01 81.0005 1344.49 81.002C1351.97 81.0003 1359.43 81.7522 1366.76 83.2461C1373.87 84.7038 1380.82 86.86 1387.5 89.6831C1394.08 92.4655 1400.36 95.8768 1406.28 99.8691C1412.14 103.839 1417.62 108.36 1422.63 113.369C1427.64 118.377 1432.15 123.854 1436.12 129.724C1438.78 133.656 1441.18 137.755 1443.31 141.996L1400.85 169.468C1400.67 169.003 1400.46 168.494 1400.24 167.957C1398.71 164.361 1396.85 160.919 1394.67 157.678C1392.49 154.468 1390.02 151.471 1387.28 148.729C1384.53 145.987 1381.53 143.513 1378.32 141.34C1375.08 139.149 1371.64 137.281 1368.04 135.762C1360.59 132.607 1352.58 130.989 1344.49 131.005C1336.4 130.989 1328.39 132.607 1320.95 135.762C1317.35 137.28 1313.9 139.148 1310.67 141.34C1307.46 143.511 1304.46 145.986 1301.72 148.729C1298.97 151.471 1296.5 154.467 1294.33 157.678C1292.14 160.917 1290.27 164.36 1288.74 167.957C1285.59 175.406 1283.98 183.415 1283.99 191.504C1283.98 199.593 1285.59 207.601 1288.74 215.051C1290.27 218.648 1292.14 222.091 1294.33 225.331C1296.5 228.542 1298.97 231.538 1301.72 234.28C1304.46 237.022 1307.46 239.497 1310.67 241.669C1313.9 243.859 1317.35 245.728 1320.95 247.247C1328.39 250.4 1336.4 252.017 1344.49 252.003C1352.58 252.017 1360.59 250.399 1368.04 247.247C1371.64 245.726 1375.08 243.858 1378.32 241.669C1381.53 239.496 1384.53 237.021 1387.28 234.28C1390.02 231.537 1392.49 228.541 1394.67 225.331C1396.85 222.09 1398.71 218.647 1400.24 215.051C1400.3 214.909 1400.36 214.761 1400.42 214.619L1442.79 242.031C1440.79 245.91 1438.56 249.669 1436.12 253.285C1432.15 259.154 1427.64 264.629 1422.63 269.635C1417.62 274.646 1412.15 279.166 1406.28 283.135C1400.36 287.127 1394.08 290.539 1387.5 293.322C1380.82 296.147 1373.87 298.303 1366.76 299.759C1359.43 301.257 1351.97 302.011 1344.49 302.009C1337.02 302.011 1329.56 301.258 1322.23 299.761L1322.22 299.76ZM1156.53 302.01V81.0098H1206.53V302.01H1156.53ZM755.754 299.755C748.645 298.309 741.697 296.156 735.016 293.329C728.444 290.544 722.156 287.131 716.24 283.137C710.372 279.172 704.898 274.654 699.891 269.645C694.877 264.638 690.357 259.161 686.391 253.29C682.394 247.379 678.983 241.093 676.205 234.521C673.375 227.837 671.219 220.888 669.768 213.776C668.266 206.451 667.511 198.993 667.514 191.515C667.511 184.034 668.266 176.572 669.768 169.243C671.218 162.133 673.374 155.185 676.205 148.504C678.982 141.928 682.393 135.638 686.391 129.724C690.356 123.856 694.877 118.382 699.891 113.38C704.898 108.369 710.374 103.848 716.242 99.8799C722.156 95.8854 728.443 92.474 735.016 89.6938C741.697 86.8618 748.644 84.7038 755.754 83.252C763.081 81.7574 770.541 81.0033 778.02 81.001C785.5 81.0039 792.962 81.7593 800.291 83.2559C807.402 84.7067 814.35 86.8646 821.031 89.6978C827.603 92.4788 833.889 95.8901 839.803 99.8838C845.671 103.851 851.148 108.372 856.154 113.384C861.163 118.389 865.681 123.862 869.646 129.728C873.643 135.643 877.055 141.932 879.834 148.508C882.661 155.191 884.817 162.138 886.271 169.247C887.766 176.577 888.518 184.038 888.516 191.519C888.519 198.996 887.767 206.454 886.271 213.78C886.193 214.185 886.102 214.596 886.014 215.011H817.521V215.017H722.254L722.26 215.033L722.271 215.06C723.795 218.66 725.663 222.104 727.848 225.345C730.025 228.554 732.499 231.55 735.238 234.294C737.98 237.036 740.979 239.508 744.193 241.678C747.432 243.866 750.875 245.738 754.473 247.266C761.923 250.415 769.931 252.031 778.02 252.017C786.11 252.029 794.119 250.414 801.572 247.266C805.169 245.74 808.61 243.868 811.846 241.678C813.961 240.255 815.981 238.698 817.895 237.014H878.744C876.175 242.687 873.131 248.133 869.645 253.293C865.679 259.162 861.161 264.639 856.152 269.648C851.142 274.653 845.668 279.171 839.803 283.14C833.888 287.134 827.601 290.548 821.029 293.332C814.347 296.158 807.399 298.31 800.289 299.758C792.96 301.257 785.498 302.013 778.018 302.013C770.54 302.011 763.082 301.254 755.756 299.755H755.754ZM754.475 135.755C750.877 137.285 747.435 139.156 744.195 141.344C740.981 143.51 737.982 145.981 735.24 148.722C732.503 151.471 730.029 154.468 727.85 157.677C725.667 160.919 723.8 164.364 722.273 167.962C722.146 168.269 721.995 168.635 721.846 169.013H834.203C834.17 168.925 834.137 168.843 834.098 168.756L834.049 168.635C833.961 168.411 833.863 168.181 833.77 167.962C832.245 164.362 830.375 160.917 828.188 157.677C826.013 154.464 823.539 151.466 820.797 148.722C818.058 145.981 815.061 143.51 811.848 141.344C808.611 139.155 805.17 137.283 801.574 135.755C794.122 132.604 786.111 130.987 778.02 131.001C769.932 130.987 761.925 132.604 754.477 135.755H754.475ZM516.756 299.76C509.646 298.303 502.697 296.147 496.012 293.323C489.441 290.541 483.155 287.129 477.242 283.136C471.373 279.166 465.896 274.646 460.887 269.636C455.877 264.63 451.359 259.155 447.395 253.286C443.397 247.374 439.986 241.086 437.209 234.512C434.376 227.831 432.217 220.883 430.766 213.772C429.266 206.445 428.512 198.984 428.516 191.505C428.513 184.024 429.267 176.562 430.766 169.233C432.218 162.123 434.377 155.176 437.209 148.494C439.986 141.922 443.397 135.635 447.395 129.725C451.36 123.855 455.878 118.379 460.887 113.37C465.895 108.361 471.372 103.842 477.242 99.877C483.154 95.8802 489.44 92.4672 496.012 89.686C502.696 86.8582 509.645 84.702 516.756 83.249C524.084 81.755 531.544 81.003 539.023 81.0049C546.504 81.0032 553.965 81.7551 561.295 83.249C568.404 84.702 575.351 86.8583 582.033 89.686C588.131 92.2685 593.984 95.3936 599.521 99.0239V0.000976562H649.521V192.001H649.514C649.483 199.313 648.734 206.605 647.271 213.77C645.821 220.88 643.665 227.828 640.834 234.51C638.053 241.083 634.639 247.371 630.643 253.284C626.682 259.154 622.165 264.629 617.156 269.634C612.145 274.642 606.668 279.163 600.801 283.134C594.888 287.127 588.602 290.539 582.031 293.321C575.348 296.146 568.401 298.302 561.293 299.758C553.964 301.256 546.504 302.01 539.023 302.008C531.545 302.011 524.085 301.258 516.758 299.761L516.756 299.76ZM515.475 135.766C511.874 137.286 508.431 139.153 505.195 141.344C501.981 143.513 498.982 145.986 496.24 148.728C493.502 151.474 491.028 154.473 488.852 157.683C486.664 160.921 484.796 164.363 483.273 167.962C480.123 175.412 478.508 183.42 478.523 191.509C478.507 199.597 480.122 207.607 483.273 215.056C484.797 218.655 486.665 222.097 488.852 225.336C491.027 228.547 493.5 231.546 496.24 234.291C498.985 237.031 501.984 239.506 505.195 241.68C508.435 243.864 511.878 245.732 515.475 247.258C522.924 250.411 530.934 252.029 539.023 252.015C547.114 252.028 555.125 250.41 562.576 247.258C566.171 245.731 569.611 243.863 572.85 241.68C576.06 239.506 579.057 237.032 581.799 234.291C584.543 231.549 587.017 228.551 589.188 225.336C591.375 222.098 593.243 218.655 594.766 215.056C597.918 207.607 599.534 199.598 599.518 191.509C599.533 183.42 597.916 175.412 594.766 167.962C593.244 164.363 591.376 160.92 589.188 157.683C587.016 154.469 584.542 151.471 581.799 148.728C579.059 145.986 576.062 143.513 572.85 141.344C569.614 139.157 566.173 137.289 562.576 135.766C555.125 132.612 547.115 130.993 539.023 131.009C530.934 130.992 522.925 132.611 515.477 135.767L515.475 135.766ZM1817.96 302.001V160.001C1817.96 154.653 1818.5 149.32 1819.56 144.079C1820.6 138.996 1822.15 134.029 1824.17 129.251C1826.16 124.553 1828.6 120.058 1831.45 115.83C1834.29 111.634 1837.51 107.719 1841.1 104.139C1844.68 100.558 1848.59 97.3281 1852.79 94.4941C1857.01 91.6372 1861.51 89.1973 1866.21 87.209C1870.99 85.1915 1875.96 83.6506 1881.04 82.6089C1886.28 81.5374 1891.61 80.9985 1896.96 81H1952.96V130.695H1893.96C1890.48 130.689 1887.04 131.384 1883.84 132.737C1880.75 134.041 1877.94 135.934 1875.57 138.309C1873.2 140.678 1871.31 143.485 1870 146.574C1868.65 149.777 1867.96 153.218 1867.96 156.695V302.001H1817.96ZM1151.53 32.001C1151.53 23.514 1154.9 15.3747 1160.9 9.37354C1166.9 3.37237 1175.04 0.000976562 1183.53 0.000976562C1192.01 0.000976562 1200.15 3.37237 1206.15 9.37354C1212.15 15.3747 1215.53 23.514 1215.53 32.001C1215.53 40.4879 1212.15 48.6273 1206.15 54.6284C1200.15 60.6296 1192.01 64.001 1183.53 64.001C1175.04 64.0007 1166.9 60.6303 1160.9 54.6309C1154.9 48.6315 1151.53 40.4942 1151.53 32.0088V32.001Z" fill="#AAAAAA"/>
<path d="M134.109 160.678L248.326 46.4608L393.089 191.223L247.759 336.553L134.109 222.904C125.857 214.652 121.221 203.461 121.221 191.791C121.221 180.121 125.857 168.93 134.109 160.678Z" fill="#3B61FF"/>
<path d="M101.823 89.9676L145.33 46.4608L290.093 191.223L144.762 336.553L101.823 293.614C74.8181 266.609 59.6468 229.982 59.6468 191.791C59.6468 153.6 74.8181 116.973 101.823 89.9676Z" fill="#F7BB02"/>
<path d="M162.4 251.188C154.599 243.388 148.411 234.127 144.189 223.936C139.968 213.744 137.793 202.82 137.793 191.788C137.793 180.756 139.968 169.833 144.189 159.641C148.411 149.449 154.599 140.188 162.4 132.388L196.832 97.9551L290.096 191.216L196.264 285.049L162.4 251.188Z" fill="#FFE980"/>
</g>
<defs>
<clipPath id="clip0_6110_851">
<rect width="1952.96" height="384.005" fill="white"/>
</clipPath>
</defs>
</svg>
