<svg width="108" height="108" viewBox="0 0 108 108" fill="none" xmlns="http://www.w3.org/2000/svg">
<g clip-path="url(#clip0_2734_20139)">
<path opacity="0.1" fill-rule="evenodd" clip-rule="evenodd" d="M54 108C83.8234 108 108 83.8234 108 54C108 24.1766 83.8234 0 54 0C24.1766 0 0 24.1766 0 54C0 83.8234 24.1766 108 54 108Z" fill="black"/>
<path opacity="0.3" fill-rule="evenodd" clip-rule="evenodd" d="M54 97C77.7482 97 97 77.7482 97 54C97 30.2518 77.7482 11 54 11C30.2518 11 11 30.2518 11 54C11 77.7482 30.2518 97 54 97Z" fill="black"/>
<path fill-rule="evenodd" clip-rule="evenodd" d="M54 85C71.1208 85 85 71.1208 85 54C85 36.8792 71.1208 23 54 23C36.8792 23 23 36.8792 23 54C23 71.1208 36.8792 85 54 85Z" fill="black"/>
<path fill-rule="evenodd" clip-rule="evenodd" d="M45.9917 46.7026L56.6944 36L74.8735 54.1792L56.6231 72.4297L45.9917 61.7983C41.8231 57.6297 41.8231 50.8711 45.9917 46.7026Z" fill="#265FFF"/>
<path fill-rule="evenodd" clip-rule="evenodd" d="M38.2965 41.4636L43.7602 36L61.9392 54.1792L43.6889 72.4297L38.2965 67.0374C31.2345 59.9754 31.2345 48.5256 38.2965 41.4636Z" fill="#FFD300"/>
<path fill-rule="evenodd" clip-rule="evenodd" d="M45.9043 61.7098C41.7848 57.5905 41.7844 50.9115 45.9038 46.7917L45.9043 46.7909L50.2284 42.4668L61.9404 54.1785L50.157 65.962L45.9043 61.7098Z" fill="#FFE980"/>
<path d="M30.5 88C30.5 83.8579 33.8579 80.5 38 80.5H70C74.1421 80.5 77.5 83.8579 77.5 88V92C77.5 96.1421 74.1421 99.5 70 99.5H38C33.8579 99.5 30.5 96.1421 30.5 92V88Z" fill="#B4662C" fill-opacity="0.25098" stroke="#E5BB4F"/>
<path fill-rule="evenodd" clip-rule="evenodd" d="M51.3926 94.0005V93.7588L52.2197 93.7051V86.6313L51.3926 86.5776V86.3359H54.3091C54.703 86.3359 55.0673 86.378 55.4021 86.4622C55.7369 86.5463 56.0386 86.6734 56.3071 86.8435C56.5757 87.0136 56.786 87.241 56.9382 87.5256C57.0904 87.8103 57.1665 88.1388 57.1665 88.5112C57.1665 88.855 57.1083 89.1647 56.9919 89.4404C56.8756 89.7162 56.7189 89.9471 56.522 90.1333C56.325 90.3195 56.0878 90.4744 55.8103 90.5979C55.5328 90.7214 55.2392 90.811 54.9294 90.8665C54.6197 90.922 54.2912 90.9497 53.9438 90.9497C53.8686 90.9497 53.7523 90.9461 53.5947 90.939V93.7051L54.4219 93.7588V94.0005H51.3926ZM53.5957 90.6323C53.721 90.6431 53.8481 90.6484 53.9771 90.6484C55.1515 90.6484 55.7388 89.9323 55.7388 88.5C55.7388 88.1527 55.6994 87.8564 55.6206 87.6111C55.5418 87.3658 55.4282 87.176 55.2796 87.0417C55.131 86.9075 54.9662 86.8108 54.7854 86.7517C54.6046 86.6926 54.3978 86.6631 54.1651 86.6631C53.9896 86.6631 53.7998 86.6774 53.5957 86.7061L53.5957 90.6323ZM57.8164 94.0005V93.7588L58.6436 93.7051V86.6313L57.8164 86.5776V86.3359H60.6792C61.0767 86.3359 61.4356 86.37 61.7561 86.438C62.0766 86.506 62.363 86.6134 62.6155 86.7603C62.8679 86.9071 63.0631 87.1049 63.2009 87.3538C63.3388 87.6026 63.4077 87.8971 63.4077 88.2373C63.4077 88.8496 63.2018 89.3267 62.79 89.6687C62.3783 90.0107 61.8214 90.2318 61.1196 90.332V90.3428C61.4204 90.3464 61.6809 90.3947 61.9011 90.4878C62.1213 90.5809 62.2968 90.7 62.4275 90.845C62.5582 90.99 62.6826 91.1771 62.8008 91.4063C62.8796 91.5638 62.9914 91.8046 63.1365 92.1287C63.2815 92.4527 63.4256 92.7401 63.5688 92.9907C63.6834 93.1948 63.8034 93.3524 63.9287 93.4634C64.054 93.5744 64.1597 93.6424 64.2456 93.6675C64.3315 93.6926 64.43 93.7051 64.541 93.7051V94.0005H63.6494C63.3773 94.0005 63.1624 93.9835 63.0049 93.9495C62.8473 93.9154 62.6907 93.834 62.5349 93.7051C62.3791 93.5762 62.2404 93.398 62.1186 93.1707C61.9969 92.9433 61.7892 92.4679 61.4956 91.7446C61.4526 91.6372 61.3908 91.4985 61.3103 91.3284C61.2297 91.1583 61.1599 91.0294 61.1008 90.9417C61.0417 90.8539 60.9719 90.7617 60.8913 90.665C60.8108 90.5684 60.7284 90.4994 60.6443 90.4583C60.5601 90.4171 60.4715 90.3965 60.3784 90.3965C60.2209 90.3965 60.1009 90.3983 60.0185 90.4019V93.7051L60.8457 93.7588V94.0005H57.8164ZM60.0195 90.0947C60.0589 90.0983 60.1323 90.1001 60.2397 90.1001C60.8771 90.1001 61.3256 89.9452 61.5852 89.6355C61.8448 89.3258 61.9746 88.863 61.9746 88.2471C61.9746 87.9391 61.9379 87.6777 61.8645 87.4629C61.7911 87.2481 61.6864 87.0815 61.5503 86.9634C61.4142 86.8452 61.2638 86.7611 61.0991 86.7109C60.9344 86.6608 60.7464 86.6357 60.5352 86.6357C60.3955 86.6357 60.2236 86.6501 60.0195 86.6787V90.0947ZM64.7773 90.1919C64.7773 89.4543 64.9098 88.7811 65.1748 88.1724C65.4398 87.5636 65.8292 87.074 66.343 86.7034C66.8568 86.3328 67.4486 86.1475 68.1182 86.1475C69.1279 86.1475 69.9417 86.5037 70.5593 87.2163C71.177 87.9289 71.4858 88.8635 71.4858 90.02C71.4858 90.4426 71.4438 90.8525 71.3596 91.25C71.2755 91.6475 71.1439 92.0243 70.9648 92.3806C70.7858 92.7369 70.5683 93.0484 70.3122 93.3152C70.0562 93.582 69.742 93.7941 69.3696 93.9517C68.9972 94.1092 68.5908 94.188 68.1504 94.188C67.1012 94.188 66.2768 93.8228 65.677 93.0923C65.0772 92.3618 64.7773 91.395 64.7773 90.1919L64.7773 90.1919ZM66.2168 90.0732C66.2168 90.7786 66.2866 91.4151 66.4263 91.9827C66.5659 92.5502 66.7817 93.0103 67.0735 93.363C67.3653 93.7157 67.7135 93.8921 68.1182 93.8921C68.7197 93.8921 69.1915 93.543 69.5335 92.8447C69.8754 92.1465 70.0464 91.2191 70.0464 90.0625C70.0464 88.8594 69.879 87.9552 69.5442 87.3501C69.2094 86.745 68.7448 86.4424 68.1504 86.4424C67.9427 86.4424 67.7449 86.4854 67.5569 86.5713C67.3689 86.6572 67.1925 86.7951 67.0278 86.9849C66.8631 87.1746 66.7217 87.4083 66.6035 87.6858C66.4854 87.9633 66.3914 88.3062 66.3215 88.7144C66.2517 89.1226 66.2168 89.5755 66.2168 90.0732H66.2168Z" fill="white"/>
<path fill-rule="evenodd" clip-rule="evenodd" d="M36.0176 88.7881H37.4576H38.9659L41.3087 96.0168L41.2889 96.043L36.0176 88.7881ZM39.8262 88.7883H42.1941L42.186 88.7793H42.2283L42.2202 88.7883H44.5737L42.2004 95.9748L42.1688 96.0171L39.8262 88.7883ZM45.4347 88.7881H46.9575H48.3832L43.0605 95.9746L45.4347 88.7881ZM46.958 88.0051H45.4352L45.438 87.9961H43.0898L45.7583 85L45.8159 85.0648L45.8165 85.0664L48.407 87.9736L48.3837 88.0051L46.958 88.0051ZM39.6445 85.009H41.9935L41.9908 85H43.5136H44.9392L44.9627 85.0315L42.3715 87.9403L42.314 88.0051L39.6445 85.009ZM37.4571 88.0051H36.0171L36 87.9825L38.5983 85.0657L38.6567 85L41.3253 87.9969H38.9628L38.9655 88.0051L37.4571 88.0051Z" fill="url(#paint0_linear_2734_20139)"/>
</g>
<defs>
<linearGradient id="paint0_linear_2734_20139" x1="42.2035" y1="85" x2="42.2035" y2="96.043" gradientUnits="userSpaceOnUse">
<stop stop-color="#EEFF00"/>
<stop offset="1" stop-color="#FFD500"/>
</linearGradient>
<clipPath id="clip0_2734_20139">
<rect width="108" height="108" fill="white"/>
</clipPath>
</defs>
</svg>
