<svg xmlns="http://www.w3.org/2000/svg" width="64" height="64" viewBox="0 0 64 64" fill="none">
<rect width="64" height="64" rx="21" fill="black" fill-opacity="0.5"/>
<g clip-path="url(#clip0_11038_25269)">
<path d="M41.91 23.5111H40.1379V19.0615C40.1379 14.6185 36.7133 11.0039 32.5 11.0039C28.2867 11.0039 24.8621 14.6209 24.8621 19.0667V23.5111H23.1097C22.5025 23.5111 22 24.0195 22 24.6595V38.1035C22 39.7011 23.2432 40.9996 24.7588 40.9996H40.2608C41.7764 40.9996 43 39.7011 43 38.1035V24.6595C43 24.0195 42.5172 23.5111 41.91 23.5111ZM27.0586 19.0667C27.0586 15.899 29.4992 13.3218 32.5 13.3218C35.5008 13.3218 37.9414 15.8966 37.9414 19.0615V23.5111H27.0586V19.0667ZM40.8035 38.1035C40.8035 38.423 40.5639 38.6842 40.2608 38.6842H24.7588C24.4557 38.6842 24.1965 38.423 24.1965 38.1035V25.8265H40.8035V38.1035Z" fill="#FFB913"/>
<path d="M32.5001 35.7275C33.1073 35.7275 33.5984 35.2086 33.5984 34.5685V30.3963C33.5984 29.7562 33.1073 29.2373 32.5001 29.2373C31.8929 29.2373 31.4019 29.7562 31.4019 30.3963V34.5685C31.4019 35.2086 31.8929 35.7275 32.5001 35.7275Z" fill="#FFB913"/>
</g>
<path d="M13.8984 55V47.8613H15.4121V53.75H18.3076V55H13.8984ZM20.9248 49.541V55H19.4355V49.541H20.9248ZM20.1826 47.4023C20.404 47.4023 20.5944 47.4544 20.7539 47.5586C20.9134 47.6595 20.9932 47.8499 20.9932 48.1299C20.9932 48.4066 20.9134 48.5986 20.7539 48.7061C20.5944 48.8102 20.404 48.8623 20.1826 48.8623C19.958 48.8623 19.766 48.8102 19.6064 48.7061C19.4502 48.5986 19.3721 48.4066 19.3721 48.1299C19.3721 47.8499 19.4502 47.6595 19.6064 47.5586C19.766 47.4544 19.958 47.4023 20.1826 47.4023ZM28.9033 49.4385C29.5218 49.4385 29.9889 49.598 30.3047 49.917C30.6237 50.2327 30.7832 50.7406 30.7832 51.4404V55H29.2891V51.8115C29.2891 51.4209 29.2223 51.1263 29.0889 50.9277C28.9554 50.7292 28.7487 50.6299 28.4688 50.6299C28.0749 50.6299 27.7949 50.7715 27.6289 51.0547C27.4629 51.3346 27.3799 51.7367 27.3799 52.2607V55H25.8906V51.8115C25.8906 51.5511 25.8613 51.333 25.8027 51.1572C25.7441 50.9814 25.6546 50.8496 25.5342 50.7617C25.4137 50.6738 25.2591 50.6299 25.0703 50.6299C24.7936 50.6299 24.5755 50.6999 24.416 50.8398C24.2598 50.9766 24.1475 51.18 24.0791 51.4502C24.014 51.7171 23.9814 52.0443 23.9814 52.4316V55H22.4922V49.541H23.6299L23.8301 50.2393H23.9131C24.0238 50.0505 24.1621 49.8975 24.3281 49.7803C24.4974 49.6631 24.6829 49.5768 24.8848 49.5215C25.0866 49.4661 25.2917 49.4385 25.5 49.4385C25.9004 49.4385 26.2389 49.5036 26.5156 49.6338C26.7956 49.764 27.0104 49.9658 27.1602 50.2393H27.292C27.4548 49.9593 27.6842 49.7559 27.9805 49.6289C28.2799 49.502 28.5876 49.4385 28.9033 49.4385ZM33.8057 49.541V55H32.3164V49.541H33.8057ZM33.0635 47.4023C33.2848 47.4023 33.4753 47.4544 33.6348 47.5586C33.7943 47.6595 33.874 47.8499 33.874 48.1299C33.874 48.4066 33.7943 48.5986 33.6348 48.7061C33.4753 48.8102 33.2848 48.8623 33.0635 48.8623C32.8389 48.8623 32.6468 48.8102 32.4873 48.7061C32.3311 48.5986 32.2529 48.4066 32.2529 48.1299C32.2529 47.8499 32.3311 47.6595 32.4873 47.5586C32.6468 47.4544 32.8389 47.4023 33.0635 47.4023ZM37.6729 53.9111C37.8356 53.9111 37.9935 53.8949 38.1465 53.8623C38.3027 53.8298 38.4574 53.7891 38.6104 53.7402V54.8486C38.4508 54.9202 38.2523 54.9788 38.0146 55.0244C37.7803 55.0732 37.5231 55.0977 37.2432 55.0977C36.9176 55.0977 36.6247 55.0456 36.3643 54.9414C36.1071 54.834 35.9036 54.6501 35.7539 54.3896C35.6074 54.126 35.5342 53.7598 35.5342 53.291V50.6592H34.8213V50.0293L35.6416 49.5312L36.0713 48.3789H37.0234V49.541H38.5518V50.6592H37.0234V53.291C37.0234 53.4993 37.082 53.6556 37.1992 53.7598C37.3197 53.8607 37.4775 53.9111 37.6729 53.9111ZM41.9697 49.4385C42.4743 49.4385 42.9089 49.5361 43.2734 49.7314C43.638 49.9235 43.9196 50.2035 44.1182 50.5713C44.3167 50.9391 44.416 51.3883 44.416 51.9189V52.6416H40.8955C40.9118 53.0615 41.0371 53.3919 41.2715 53.6328C41.5091 53.8704 41.8379 53.9893 42.2578 53.9893C42.6061 53.9893 42.9251 53.9535 43.2148 53.8818C43.5046 53.8102 43.8024 53.7028 44.1084 53.5596V54.7119C43.8382 54.8454 43.555 54.943 43.2588 55.0049C42.9658 55.0667 42.6094 55.0977 42.1895 55.0977C41.6426 55.0977 41.1576 54.9967 40.7344 54.7949C40.3145 54.5931 39.984 54.2855 39.7432 53.8721C39.5055 53.4587 39.3867 52.9378 39.3867 52.3096C39.3867 51.6715 39.4941 51.141 39.709 50.7178C39.9271 50.2913 40.2298 49.9723 40.6172 49.7607C41.0046 49.5459 41.4554 49.4385 41.9697 49.4385ZM41.9795 50.498C41.6898 50.498 41.4489 50.5908 41.2568 50.7764C41.068 50.9619 40.959 51.2533 40.9297 51.6504H43.0195C43.0163 51.429 42.9756 51.2321 42.8975 51.0596C42.8226 50.887 42.7087 50.7503 42.5557 50.6494C42.4059 50.5485 42.2139 50.498 41.9795 50.498ZM47.3555 55.0977C46.7467 55.0977 46.2503 54.86 45.8662 54.3848C45.4854 53.9062 45.2949 53.2048 45.2949 52.2803C45.2949 51.346 45.4886 50.6396 45.876 50.1611C46.2633 49.6794 46.7695 49.4385 47.3945 49.4385C47.6549 49.4385 47.8844 49.4743 48.083 49.5459C48.2816 49.6175 48.4525 49.7135 48.5957 49.834C48.7422 49.9544 48.8659 50.0895 48.9668 50.2393H49.0156C48.9961 50.1351 48.9717 49.9821 48.9424 49.7803C48.9163 49.5752 48.9033 49.3652 48.9033 49.1504V47.4023H50.3975V55H49.2549L48.9668 54.292H48.9033C48.8089 54.4417 48.6901 54.5785 48.5469 54.7021C48.4069 54.8226 48.2393 54.9186 48.0439 54.9902C47.8486 55.0618 47.6191 55.0977 47.3555 55.0977ZM47.8779 53.9111C48.2848 53.9111 48.5713 53.7907 48.7373 53.5498C48.9066 53.3057 48.9961 52.9395 49.0059 52.4512V52.29C49.0059 51.7594 48.9245 51.3542 48.7617 51.0742C48.599 50.791 48.2962 50.6494 47.8535 50.6494C47.5247 50.6494 47.2676 50.791 47.082 51.0742C46.8965 51.3574 46.8037 51.766 46.8037 52.2998C46.8037 52.8337 46.8965 53.2357 47.082 53.5059C47.2708 53.776 47.5361 53.9111 47.8779 53.9111Z" fill="white"/>
<defs>
<clipPath id="clip0_11038_25269">
<rect width="21" height="30" fill="white" transform="translate(22 11)"/>
</clipPath>
</defs>
</svg>