<svg width="400" height="700" viewBox="0 0 400 700" fill="none" xmlns="http://www.w3.org/2000/svg">
<mask id="mask0_0_1" style="mask-type:alpha" maskUnits="userSpaceOnUse" x="0" y="0" width="400" height="700">
<path d="M0 9.99998C0 4.47713 4.47715 0 10 0H400V700H9.99999C4.47714 700 0 695.523 0 690V9.99998Z" fill="#265FFF"/>
</mask>
<g mask="url(#mask0_0_1)">
<path opacity="0.15" d="M179.232 648.043L106 573.237L198.816 478.426L291.996 573.609L219.128 648.043C213.838 653.447 206.662 656.483 199.18 656.483C191.698 656.483 184.522 653.447 179.232 648.043V648.043Z" fill="url(#paint0_linear_0_1)"/>
<path opacity="0.5" d="M133.899 690.11L106.005 661.616L198.82 566.805L292 661.988L264.469 690.11C247.155 707.797 223.671 717.733 199.184 717.733C174.698 717.733 151.214 707.797 133.899 690.11Z" fill="url(#paint1_linear_0_1)"/>
</g>
<g clip-path="url(#clip0_0_1)">
<path d="M176.224 286.391C175.328 286.391 174.434 286.303 173.556 286.127C172.704 285.957 171.871 285.705 171.071 285.374C170.283 285.048 169.53 284.648 168.821 284.179C168.118 283.715 167.462 283.185 166.862 282.599C166.262 282.012 165.72 281.37 165.245 280.682C164.766 279.989 164.358 279.253 164.025 278.482C163.685 277.699 163.427 276.885 163.253 276.051C163.073 275.193 162.983 274.319 162.983 273.442C162.983 272.566 163.073 271.691 163.253 270.832C163.427 269.999 163.685 269.185 164.025 268.402C164.357 267.631 164.766 266.894 165.245 266.202C165.72 265.514 166.262 264.872 166.862 264.286C167.462 263.699 168.118 263.169 168.822 262.704C169.53 262.236 170.283 261.836 171.071 261.511C171.871 261.179 172.704 260.926 173.556 260.756C174.434 260.581 175.328 260.492 176.224 260.492C177.12 260.492 178.014 260.581 178.892 260.756C179.744 260.926 180.577 261.179 181.377 261.511C182.165 261.837 182.918 262.237 183.626 262.705C184.329 263.17 184.986 263.699 185.586 264.286C186.186 264.873 186.727 265.514 187.202 266.202C187.681 266.895 188.09 267.632 188.423 268.402C188.762 269.186 189.02 270 189.194 270.833C189.373 271.692 189.463 272.566 189.463 273.443C189.463 274.319 189.373 275.193 189.194 276.052C189.185 276.1 189.174 276.147 189.163 276.196H180.957V276.197H169.542L169.543 276.199L169.544 276.202C169.727 276.624 169.95 277.027 170.212 277.407C170.473 277.783 170.77 278.134 171.098 278.456C171.427 278.778 171.786 279.067 172.171 279.322C172.559 279.578 172.971 279.797 173.402 279.976C174.295 280.345 175.255 280.535 176.224 280.533C177.193 280.535 178.153 280.345 179.046 279.976C179.477 279.797 179.889 279.578 180.277 279.322C180.53 279.155 180.772 278.972 181.002 278.775H188.293C187.985 279.44 187.62 280.078 187.202 280.683C186.727 281.37 186.186 282.012 185.586 282.599C184.986 283.186 184.329 283.715 183.626 284.18C182.918 284.648 182.165 285.048 181.378 285.374C180.577 285.706 179.744 285.958 178.892 286.128C178.014 286.303 177.12 286.391 176.224 286.391V286.391ZM176.224 266.352C175.254 266.35 174.295 266.54 173.402 266.909C172.971 267.088 172.559 267.307 172.171 267.564C171.786 267.817 171.426 268.107 171.098 268.428C170.77 268.75 170.473 269.101 170.212 269.477C169.951 269.857 169.727 270.261 169.544 270.683C169.529 270.718 169.511 270.761 169.493 270.806H182.955C182.951 270.796 182.947 270.786 182.943 270.776L182.937 270.762C182.926 270.736 182.915 270.709 182.903 270.683C182.721 270.261 182.497 269.857 182.235 269.477C181.975 269.101 181.678 268.75 181.349 268.428C181.021 268.107 180.662 267.817 180.277 267.564C179.889 267.307 179.477 267.088 179.046 266.909C178.153 266.539 177.193 266.35 176.224 266.352V266.352Z" fill="white"/>
<path d="M192.336 296V275.191C192.256 274.611 192.216 274.027 192.216 273.442C192.216 272.566 192.306 271.691 192.486 270.832C192.66 269.999 192.918 269.185 193.257 268.402C193.59 267.632 193.999 266.895 194.478 266.202C194.953 265.514 195.494 264.873 196.095 264.286C196.695 263.699 197.351 263.169 198.054 262.704C198.762 262.236 199.516 261.836 200.303 261.51C201.104 261.179 201.936 260.926 202.788 260.756C203.666 260.581 204.56 260.492 205.456 260.492C206.353 260.492 207.247 260.581 208.125 260.756C208.977 260.926 209.809 261.179 210.61 261.51C211.397 261.836 212.15 262.236 212.859 262.704C213.562 263.169 214.218 263.699 214.818 264.286C215.419 264.873 215.96 265.514 216.435 266.202C216.914 266.895 217.322 267.632 217.655 268.402C217.994 269.185 218.253 269.999 218.427 270.832C218.606 271.691 218.696 272.566 218.695 273.442C218.696 274.319 218.606 275.193 218.427 276.052C218.253 276.885 217.994 277.699 217.655 278.482C217.322 279.252 216.913 279.989 216.435 280.682C215.96 281.37 215.418 282.012 214.818 282.599C214.218 283.185 213.562 283.715 212.859 284.18C212.15 284.648 211.397 285.048 210.61 285.374C209.809 285.705 208.977 285.957 208.125 286.128C207.247 286.303 206.353 286.391 205.456 286.391C204.56 286.391 203.666 286.303 202.788 286.128C201.936 285.957 201.104 285.705 200.303 285.374C199.616 285.089 198.955 284.749 198.327 284.355V296H192.336ZM202.755 266.909C202.323 267.087 201.911 267.307 201.523 267.563C201.138 267.818 200.778 268.108 200.45 268.429C200.121 268.75 199.825 269.102 199.565 269.478C199.303 269.857 199.079 270.261 198.896 270.682C198.519 271.555 198.325 272.494 198.327 273.442C198.325 274.39 198.519 275.329 198.896 276.202C199.079 276.624 199.303 277.027 199.565 277.406C199.825 277.783 200.121 278.134 200.45 278.455C200.779 278.777 201.138 279.067 201.523 279.322C201.911 279.578 202.323 279.797 202.755 279.975C203.647 280.345 204.607 280.534 205.576 280.533C206.545 280.534 207.505 280.345 208.397 279.975C208.828 279.796 209.241 279.578 209.629 279.322C210.014 279.067 210.373 278.777 210.702 278.455C211.03 278.134 211.327 277.783 211.587 277.406C211.849 277.027 212.073 276.623 212.255 276.202C212.633 275.329 212.827 274.39 212.825 273.442C212.827 272.494 212.633 271.556 212.255 270.682C212.073 270.261 211.849 269.857 211.587 269.478C211.327 269.101 211.03 268.75 210.702 268.429C210.373 268.107 210.014 267.817 209.629 267.563C209.241 267.307 208.829 267.088 208.397 266.909C207.505 266.54 206.545 266.35 205.576 266.352C204.607 266.35 203.647 266.54 202.755 266.909V266.909Z" fill="white"/>
<path d="M224.805 258.501C226.923 258.501 228.639 256.822 228.639 254.751C228.639 252.68 226.923 251.001 224.805 251.001C222.688 251.001 220.971 252.68 220.971 254.751C220.971 256.822 222.688 258.501 224.805 258.501Z" fill="white"/>
<path d="M227.567 260.492H221.577V286.39H227.567V260.492Z" fill="white"/>
<path d="M300.832 286.39V269.75C300.832 269.123 300.897 268.498 301.025 267.884C301.149 267.288 301.334 266.706 301.576 266.147C301.815 265.596 302.107 265.069 302.449 264.574C302.788 264.082 303.176 263.623 303.605 263.203C304.034 262.784 304.503 262.405 305.006 262.073C305.512 261.738 306.05 261.453 306.613 261.219C307.186 260.983 307.781 260.803 308.39 260.68C309.018 260.555 309.657 260.492 310.298 260.492H317.008V266.316H309.938C309.522 266.315 309.109 266.396 308.726 266.555C308.355 266.708 308.019 266.93 307.735 267.208C307.451 267.485 307.224 267.814 307.068 268.176C306.906 268.551 306.823 268.955 306.823 269.362V286.39H300.832Z" fill="white"/>
<path d="M144.917 286.128C144.065 285.957 143.233 285.705 142.432 285.374C141.645 285.048 140.891 284.648 140.183 284.18C139.48 283.715 138.823 283.185 138.223 282.598C137.623 282.012 137.082 281.37 136.606 280.682C136.127 279.989 135.719 279.252 135.386 278.482C135.047 277.699 134.788 276.885 134.614 276.052C134.435 275.193 134.344 274.319 134.345 273.442C134.344 272.566 134.435 271.691 134.614 270.832C134.788 269.999 135.047 269.185 135.386 268.402C135.719 267.632 136.128 266.895 136.607 266.202C137.082 265.514 137.623 264.872 138.223 264.286C138.823 263.699 139.48 263.169 140.183 262.704C140.891 262.236 141.644 261.836 142.432 261.51C143.233 261.179 144.065 260.926 144.917 260.756C145.795 260.581 146.689 260.493 147.585 260.493C148.481 260.493 149.375 260.581 150.253 260.756C151.105 260.927 151.938 261.179 152.738 261.511C153.469 261.813 154.17 262.179 154.834 262.605V251.001H160.825V273.501H160.824C160.82 274.358 160.73 275.212 160.556 276.052C160.381 276.885 160.123 277.699 159.784 278.482C159.451 279.252 159.042 279.989 158.563 280.682C158.088 281.37 157.547 282.011 156.947 282.598C156.347 283.185 155.691 283.715 154.987 284.18C154.279 284.648 153.526 285.048 152.738 285.374C151.938 285.705 151.105 285.957 150.253 286.128C149.375 286.303 148.481 286.392 147.585 286.391C146.689 286.392 145.795 286.303 144.917 286.128V286.128ZM144.763 266.91C144.332 267.088 143.92 267.307 143.532 267.563C143.147 267.818 142.788 268.107 142.459 268.429C142.131 268.75 141.834 269.102 141.574 269.478C141.312 269.858 141.088 270.261 140.905 270.683C140.528 271.556 140.334 272.494 140.336 273.442C140.334 274.39 140.528 275.329 140.905 276.202C141.088 276.623 141.312 277.027 141.574 277.406C141.834 277.783 142.131 278.134 142.459 278.455C142.788 278.777 143.147 279.067 143.532 279.322C143.92 279.578 144.333 279.796 144.763 279.975C145.656 280.345 146.616 280.534 147.585 280.532C148.554 280.534 149.514 280.344 150.407 279.975C150.838 279.796 151.25 279.577 151.638 279.321C152.023 279.067 152.382 278.777 152.71 278.455C153.039 278.134 153.335 277.782 153.596 277.406C153.858 277.026 154.082 276.623 154.264 276.201C154.642 275.328 154.835 274.39 154.833 273.442C154.835 272.494 154.642 271.555 154.264 270.682C154.082 270.261 153.858 269.857 153.596 269.478C153.335 269.101 153.039 268.75 152.71 268.428C152.382 268.107 152.023 267.817 151.638 267.563C151.25 267.307 150.838 267.088 150.407 266.909C149.514 266.54 148.554 266.35 147.585 266.352C146.616 266.351 145.656 266.54 144.763 266.91V266.91Z" fill="white"/>
<path d="M268.059 286.39C267.418 286.39 266.779 286.327 266.151 286.202C265.543 286.08 264.948 285.899 264.375 285.663C263.812 285.43 263.273 285.144 262.767 284.809C262.264 284.477 261.795 284.099 261.366 283.679C260.937 283.259 260.55 282.8 260.21 282.309C259.868 281.814 259.576 281.287 259.337 280.737C259.095 280.177 258.911 279.594 258.786 278.999C258.658 278.385 258.594 277.76 258.594 277.133V276.196H258.593V251H264.585V260.492H270.216V266.351H264.585V270.805H264.609V277.484C264.609 277.892 264.692 278.295 264.854 278.67C265.01 279.032 265.237 279.361 265.522 279.639C265.806 279.917 266.142 280.139 266.512 280.292C266.896 280.45 267.308 280.532 267.725 280.531H270.216V286.39L268.059 286.39Z" fill="white"/>
<path d="M99.0706 269.828L112.756 256.443L130.101 273.408L112.688 290.438L99.0706 277.12C98.0819 276.153 97.5265 274.842 97.5265 273.474C97.5265 272.107 98.0819 270.795 99.0706 269.828V269.828Z" fill="#265FFF"/>
<path d="M95.2003 261.543L100.413 256.444L117.758 273.409L100.345 290.439L95.2003 285.407C91.9645 282.243 90.1467 277.951 90.1467 273.475C90.1467 269 91.9645 264.707 95.2003 261.543V261.543Z" fill="#FFD300"/>
<path d="M285.603 286.391C284.706 286.391 283.813 286.303 282.935 286.127C282.083 285.957 281.25 285.705 280.45 285.374C279.662 285.048 278.909 284.648 278.2 284.179C277.497 283.715 276.841 283.185 276.241 282.599C275.641 282.012 275.099 281.37 274.624 280.682C274.145 279.989 273.736 279.253 273.403 278.482C273.064 277.699 272.806 276.885 272.632 276.051C272.452 275.193 272.362 274.319 272.362 273.442C272.362 272.566 272.452 271.691 272.632 270.832C272.806 269.999 273.064 269.185 273.403 268.402C273.736 267.631 274.145 266.894 274.624 266.202C275.099 265.514 275.641 264.872 276.241 264.286C276.841 263.699 277.497 263.169 278.201 262.704C278.909 262.236 279.662 261.836 280.45 261.511C281.25 261.179 282.083 260.926 282.935 260.756C283.813 260.581 284.707 260.492 285.603 260.492C286.499 260.492 287.393 260.581 288.271 260.756C289.123 260.926 289.956 261.179 290.756 261.511C291.544 261.837 292.297 262.237 293.005 262.705C293.708 263.17 294.365 263.699 294.965 264.286C295.565 264.873 296.106 265.514 296.581 266.202C297.06 266.895 297.469 267.632 297.802 268.402C298.14 269.186 298.399 270 298.573 270.833C298.752 271.692 298.842 272.566 298.842 273.443C298.842 274.319 298.752 275.193 298.573 276.052C298.564 276.1 298.553 276.147 298.542 276.196H290.336V276.197H278.921L278.922 276.199L278.923 276.202C279.106 276.624 279.329 277.027 279.591 277.407C279.852 277.783 280.149 278.134 280.477 278.456C280.806 278.778 281.165 279.067 281.55 279.322C281.938 279.578 282.35 279.797 282.781 279.976C283.674 280.345 284.634 280.535 285.603 280.533C286.572 280.535 287.532 280.345 288.425 279.976C288.856 279.797 289.268 279.578 289.656 279.322C289.909 279.155 290.151 278.972 290.381 278.775H297.671C297.364 279.44 296.999 280.078 296.581 280.683C296.106 281.37 295.565 282.012 294.965 282.599C294.365 283.186 293.708 283.715 293.005 284.18C292.297 284.648 291.544 285.048 290.756 285.374C289.956 285.706 289.123 285.958 288.271 286.128C287.393 286.303 286.499 286.391 285.603 286.391V286.391ZM285.603 266.352C284.633 266.35 283.674 266.54 282.781 266.909C282.35 267.088 281.938 267.307 281.55 267.564C281.165 267.817 280.805 268.107 280.477 268.428C280.149 268.75 279.852 269.101 279.591 269.477C279.33 269.857 279.106 270.261 278.923 270.683C278.908 270.718 278.89 270.761 278.872 270.806H292.334C292.33 270.796 292.326 270.786 292.322 270.776L292.316 270.762C292.305 270.736 292.294 270.709 292.282 270.683C292.099 270.261 291.876 269.857 291.614 269.477C291.354 269.101 291.057 268.75 290.728 268.428C290.4 268.107 290.041 267.817 289.656 267.564C289.268 267.307 288.856 267.088 288.425 266.909C287.532 266.539 286.572 266.35 285.603 266.352V266.352Z" fill="white"/>
<path d="M244.091 286.39C243.195 286.391 242.301 286.302 241.423 286.127C240.571 285.956 239.738 285.704 238.937 285.373C238.15 285.047 237.397 284.647 236.689 284.179C235.986 283.714 235.329 283.184 234.729 282.597C234.129 282.01 233.587 281.369 233.112 280.681C232.633 279.988 232.225 279.252 231.892 278.481C231.553 277.698 231.295 276.884 231.12 276.05C230.941 275.192 230.851 274.318 230.851 273.441C230.851 272.565 230.941 271.691 231.12 270.832C231.295 269.998 231.553 269.184 231.892 268.401C232.225 267.631 232.633 266.894 233.113 266.202C233.587 265.514 234.129 264.872 234.729 264.285C235.329 263.698 235.986 263.168 236.689 262.703C237.397 262.235 238.15 261.835 238.937 261.509C239.738 261.178 240.571 260.926 241.423 260.755C242.301 260.58 243.195 260.492 244.091 260.492C244.987 260.492 245.881 260.58 246.759 260.756C247.611 260.926 248.443 261.179 249.245 261.51C250.032 261.836 250.785 262.236 251.494 262.704C252.197 263.169 252.853 263.698 253.453 264.286C254.053 264.872 254.594 265.514 255.069 266.202C255.388 266.663 255.675 267.143 255.931 267.64L250.844 270.859C250.822 270.805 250.797 270.745 250.771 270.682C250.588 270.261 250.364 269.857 250.102 269.478C249.842 269.101 249.546 268.75 249.217 268.429C248.888 268.107 248.529 267.817 248.144 267.563C247.756 267.306 247.344 267.087 246.913 266.909C246.02 266.54 245.06 266.35 244.091 266.352C243.122 266.35 242.162 266.539 241.27 266.909C240.838 267.087 240.426 267.306 240.038 267.562C239.653 267.817 239.294 268.107 238.965 268.428C238.637 268.75 238.34 269.101 238.08 269.477C237.818 269.857 237.594 270.26 237.411 270.682C237.034 271.555 236.84 272.493 236.842 273.441C236.84 274.389 237.034 275.328 237.411 276.201C237.594 276.622 237.818 277.026 238.08 277.405C238.34 277.782 238.637 278.133 238.965 278.454C239.294 278.776 239.653 279.066 240.038 279.32C240.426 279.577 240.838 279.796 241.27 279.974C242.162 280.343 243.122 280.533 244.091 280.531C245.06 280.533 246.02 280.343 246.913 279.974C247.344 279.796 247.756 279.577 248.144 279.32C248.529 279.066 248.888 278.776 249.217 278.454C249.546 278.133 249.842 277.782 250.102 277.406C250.364 277.026 250.588 276.622 250.771 276.201C250.778 276.184 250.785 276.167 250.792 276.15L255.868 279.363C255.629 279.817 255.362 280.257 255.069 280.681C254.594 281.369 254.053 282.011 253.453 282.598C252.853 283.185 252.197 283.714 251.494 284.18C250.785 284.647 250.032 285.047 249.245 285.373C248.443 285.704 247.611 285.957 246.759 286.128C245.881 286.303 244.987 286.391 244.091 286.39V286.39Z" fill="white"/>
<path d="M102.46 280.436C101.525 279.522 100.784 278.437 100.278 277.243C99.7719 276.048 99.5114 274.768 99.5114 273.475C99.5114 272.183 99.7719 270.903 100.278 269.708C100.784 268.514 101.525 267.429 102.46 266.515L106.585 262.479L117.76 273.408L106.517 284.404L102.46 280.436Z" fill="#FFE980"/>
</g>
<path d="M139.158 384.154C138.654 384.154 138.201 384.112 137.8 384.028C137.399 383.944 136.951 383.832 136.456 383.692C136.129 383.599 135.91 383.547 135.798 383.538L135.924 380.948H137.058L137.366 382.754C137.487 382.885 137.702 383.001 138.01 383.104C138.327 383.207 138.687 383.258 139.088 383.258C139.713 383.258 140.18 383.123 140.488 382.852C140.805 382.572 140.964 382.185 140.964 381.69C140.964 381.363 140.871 381.083 140.684 380.85C140.497 380.607 140.241 380.393 139.914 380.206C139.587 380.01 139.139 379.786 138.57 379.534C137.795 379.179 137.151 378.759 136.638 378.274C136.134 377.779 135.882 377.112 135.882 376.272C135.882 375.749 136.017 375.278 136.288 374.858C136.559 374.429 136.96 374.093 137.492 373.85C138.033 373.598 138.691 373.472 139.466 373.472C139.923 373.472 140.325 373.505 140.67 373.57C141.025 373.635 141.407 373.724 141.818 373.836C142.061 373.901 142.243 373.943 142.364 373.962L142.28 376.412H141.16L140.866 374.69C140.782 374.606 140.614 374.527 140.362 374.452C140.11 374.368 139.83 374.326 139.522 374.326C138.962 374.326 138.537 374.457 138.248 374.718C137.968 374.97 137.828 375.311 137.828 375.74C137.828 376.085 137.931 376.384 138.136 376.636C138.351 376.888 138.607 377.103 138.906 377.28C139.205 377.448 139.676 377.691 140.32 378.008C140.843 378.26 141.291 378.507 141.664 378.75C142.037 378.993 142.359 379.31 142.63 379.702C142.901 380.085 143.036 380.537 143.036 381.06C143.036 381.573 142.905 382.063 142.644 382.53C142.392 382.997 141.972 383.384 141.384 383.692C140.805 384 140.063 384.154 139.158 384.154ZM146.418 384.126C145.83 384.126 145.396 383.991 145.116 383.72C144.836 383.449 144.696 383.02 144.696 382.432V377.294H143.786V376.566C143.86 376.538 143.996 376.491 144.192 376.426C144.388 376.351 144.537 376.291 144.64 376.244C144.798 376.123 144.934 375.913 145.046 375.614C145.13 375.418 145.284 374.933 145.508 374.158H146.628L146.684 376.216H148.826V377.294H146.698V381.228C146.698 381.751 146.712 382.119 146.74 382.334C146.768 382.549 146.828 382.689 146.922 382.754C147.015 382.81 147.178 382.838 147.412 382.838C147.645 382.838 147.888 382.815 148.14 382.768C148.392 382.712 148.602 382.647 148.77 382.572L149.036 383.356C148.774 383.552 148.392 383.729 147.888 383.888C147.384 384.047 146.894 384.126 146.418 384.126ZM149.626 381.816C149.626 380.967 150.051 380.327 150.9 379.898C151.759 379.469 152.865 379.249 154.218 379.24V378.918C154.218 378.535 154.176 378.237 154.092 378.022C154.018 377.807 153.873 377.649 153.658 377.546C153.453 377.434 153.15 377.378 152.748 377.378C152.291 377.378 151.88 377.439 151.516 377.56C151.152 377.672 150.774 377.821 150.382 378.008L149.948 377.112C150.088 376.991 150.322 376.846 150.648 376.678C150.984 376.51 151.381 376.365 151.838 376.244C152.296 376.113 152.767 376.048 153.252 376.048C153.971 376.048 154.531 376.141 154.932 376.328C155.343 376.515 155.637 376.813 155.814 377.224C155.992 377.635 156.08 378.185 156.08 378.876V383.16H156.836V383.944C156.65 383.991 156.384 384.037 156.038 384.084C155.693 384.131 155.39 384.154 155.128 384.154C154.811 384.154 154.596 384.107 154.484 384.014C154.382 383.921 154.33 383.729 154.33 383.44V383.062C154.078 383.342 153.752 383.594 153.35 383.818C152.949 384.042 152.496 384.154 151.992 384.154C151.563 384.154 151.166 384.065 150.802 383.888C150.448 383.701 150.163 383.435 149.948 383.09C149.734 382.735 149.626 382.311 149.626 381.816ZM152.888 382.992C153.084 382.992 153.308 382.936 153.56 382.824C153.812 382.703 154.032 382.558 154.218 382.39V380.094C153.378 380.094 152.748 380.239 152.328 380.528C151.918 380.808 151.712 381.172 151.712 381.62C151.712 382.068 151.815 382.409 152.02 382.642C152.235 382.875 152.524 382.992 152.888 382.992ZM157.71 383.174L158.634 383.062V377.546L157.738 377.294V376.328L159.908 376.034H159.95L160.3 376.314V376.622L160.258 377.756H160.3C160.365 377.569 160.519 377.341 160.762 377.07C161.005 376.79 161.308 376.547 161.672 376.342C162.045 376.127 162.447 376.02 162.876 376.02C163.081 376.02 163.259 376.048 163.408 376.104V378.204C163.128 378.008 162.787 377.91 162.386 377.91C161.705 377.91 161.112 378.092 160.608 378.456V383.048L162.232 383.174V384H157.71V383.174ZM166.652 384.126C166.064 384.126 165.63 383.991 165.35 383.72C165.07 383.449 164.93 383.02 164.93 382.432V377.294H164.02V376.566C164.095 376.538 164.23 376.491 164.426 376.426C164.622 376.351 164.771 376.291 164.874 376.244C165.033 376.123 165.168 375.913 165.28 375.614C165.364 375.418 165.518 374.933 165.742 374.158H166.862L166.918 376.216H169.06V377.294H166.932V381.228C166.932 381.751 166.946 382.119 166.974 382.334C167.002 382.549 167.063 382.689 167.156 382.754C167.249 382.81 167.413 382.838 167.646 382.838C167.879 382.838 168.122 382.815 168.374 382.768C168.626 382.712 168.836 382.647 169.004 382.572L169.27 383.356C169.009 383.552 168.626 383.729 168.122 383.888C167.618 384.047 167.128 384.126 166.652 384.126ZM176.277 379.87L173.281 374.648L172.483 374.466V373.598H176.599V374.466L175.605 374.648L177.355 378.078L177.747 379.044L178.153 378.078L179.763 374.648L178.671 374.466V373.598H182.087V374.466L181.219 374.634L178.433 379.856V383.02L179.959 383.16V384H174.793V383.16L176.277 383.02V379.87ZM182.456 380.122C182.456 379.245 182.629 378.498 182.974 377.882C183.329 377.266 183.8 376.804 184.388 376.496C184.976 376.179 185.616 376.02 186.306 376.02C187.482 376.02 188.388 376.384 189.022 377.112C189.666 377.831 189.988 378.811 189.988 380.052C189.988 380.939 189.811 381.695 189.456 382.32C189.111 382.936 188.644 383.398 188.056 383.706C187.478 384.005 186.838 384.154 186.138 384.154C184.972 384.154 184.066 383.795 183.422 383.076C182.778 382.348 182.456 381.363 182.456 380.122ZM186.25 383.244C187.305 383.244 187.832 382.227 187.832 380.192C187.832 379.128 187.706 378.321 187.454 377.77C187.202 377.21 186.792 376.93 186.222 376.93C185.14 376.93 184.598 377.947 184.598 379.982C184.598 381.046 184.729 381.858 184.99 382.418C185.261 382.969 185.681 383.244 186.25 383.244ZM197.575 384.14C197.267 384.14 197.043 384.075 196.903 383.944C196.763 383.813 196.693 383.617 196.693 383.356V382.978C196.441 383.286 196.086 383.561 195.629 383.804C195.172 384.037 194.714 384.154 194.257 384.154C193.361 384.154 192.722 383.925 192.339 383.468C191.956 383.001 191.765 382.236 191.765 381.172V377.224L191.065 377.028V376.23L193.445 376.048H193.459L193.739 376.244V381.172C193.739 381.853 193.823 382.329 193.991 382.6C194.159 382.871 194.472 383.006 194.929 383.006C195.48 383.006 195.993 382.791 196.469 382.362V377.224L195.531 377.014V376.23L198.065 376.048H198.093L198.429 376.244V383.132H199.213L199.199 383.93C199.162 383.939 198.989 383.977 198.681 384.042C198.373 384.107 198.004 384.14 197.575 384.14ZM200.202 383.174L201.126 383.062V377.546L200.23 377.294V376.328L202.4 376.034H202.442L202.792 376.314V376.622L202.75 377.756H202.792C202.858 377.569 203.012 377.341 203.254 377.07C203.497 376.79 203.8 376.547 204.164 376.342C204.538 376.127 204.939 376.02 205.368 376.02C205.574 376.02 205.751 376.048 205.9 376.104V378.204C205.62 378.008 205.28 377.91 204.878 377.91C204.197 377.91 203.604 378.092 203.1 378.456V383.048L204.724 383.174V384H200.202V383.174ZM209.302 385.904C209.676 385.783 210.021 385.568 210.338 385.26C210.665 384.952 210.903 384.565 211.052 384.098C211.155 383.781 211.23 383.403 211.276 382.964C211.323 382.516 211.346 381.891 211.346 381.088V374.662L210.086 374.466V373.598H214.566V374.466L213.39 374.648V380.15C213.39 381.149 213.376 381.923 213.348 382.474C213.33 383.015 213.283 383.449 213.208 383.776C213.012 384.532 212.611 385.157 212.004 385.652C211.398 386.156 210.651 386.483 209.764 386.632L209.302 385.904ZM215.583 380.122C215.583 379.245 215.756 378.498 216.101 377.882C216.456 377.266 216.927 376.804 217.515 376.496C218.103 376.179 218.742 376.02 219.433 376.02C220.609 376.02 221.514 376.384 222.149 377.112C222.793 377.831 223.115 378.811 223.115 380.052C223.115 380.939 222.938 381.695 222.583 382.32C222.238 382.936 221.771 383.398 221.183 383.706C220.604 384.005 219.965 384.154 219.265 384.154C218.098 384.154 217.193 383.795 216.549 383.076C215.905 382.348 215.583 381.363 215.583 380.122ZM219.377 383.244C220.432 383.244 220.959 382.227 220.959 380.192C220.959 379.128 220.833 378.321 220.581 377.77C220.329 377.21 219.918 376.93 219.349 376.93C218.266 376.93 217.725 377.947 217.725 379.982C217.725 381.046 217.856 381.858 218.117 382.418C218.388 382.969 218.808 383.244 219.377 383.244ZM230.702 384.14C230.394 384.14 230.17 384.075 230.03 383.944C229.89 383.813 229.82 383.617 229.82 383.356V382.978C229.568 383.286 229.213 383.561 228.756 383.804C228.298 384.037 227.841 384.154 227.384 384.154C226.488 384.154 225.848 383.925 225.466 383.468C225.083 383.001 224.892 382.236 224.892 381.172V377.224L224.192 377.028V376.23L226.572 376.048H226.586L226.866 376.244V381.172C226.866 381.853 226.95 382.329 227.118 382.6C227.286 382.871 227.598 383.006 228.056 383.006C228.606 383.006 229.12 382.791 229.596 382.362V377.224L228.658 377.014V376.23L231.192 376.048H231.22L231.556 376.244V383.132H232.34L232.326 383.93C232.288 383.939 232.116 383.977 231.808 384.042C231.5 384.107 231.131 384.14 230.702 384.14ZM233.329 383.174L234.253 383.062V377.546L233.357 377.294V376.328L235.527 376.034H235.569L235.919 376.314V376.622L235.877 377.756H235.919C235.985 377.569 236.139 377.341 236.381 377.07C236.624 376.79 236.927 376.547 237.291 376.342C237.665 376.127 238.066 376.02 238.495 376.02C238.701 376.02 238.878 376.048 239.027 376.104V378.204C238.747 378.008 238.407 377.91 238.005 377.91C237.324 377.91 236.731 378.092 236.227 378.456V383.048L237.851 383.174V384H233.329V383.174ZM240.703 377.546L239.807 377.294V376.328L242.131 376.034H242.173L242.523 376.314V376.86L242.509 377.196C242.836 376.888 243.26 376.622 243.783 376.398C244.306 376.174 244.833 376.062 245.365 376.062C245.934 376.062 246.378 376.169 246.695 376.384C247.022 376.589 247.255 376.916 247.395 377.364C247.535 377.812 247.605 378.419 247.605 379.184V383.048L248.459 383.16V384H244.847V383.16L245.603 383.048V379.184C245.603 378.699 245.57 378.321 245.505 378.05C245.44 377.77 245.318 377.569 245.141 377.448C244.973 377.317 244.73 377.252 244.413 377.252C243.881 377.252 243.312 377.481 242.705 377.938V383.034L243.545 383.16V384H239.891V383.16L240.703 383.034V377.546ZM252.976 384.154C251.744 384.154 250.825 383.795 250.218 383.076C249.621 382.348 249.322 381.359 249.322 380.108C249.322 379.268 249.476 378.54 249.784 377.924C250.102 377.308 250.545 376.837 251.114 376.51C251.684 376.183 252.342 376.02 253.088 376.02C254.022 376.02 254.74 376.267 255.244 376.762C255.748 377.247 256.01 377.943 256.028 378.848C256.028 379.464 255.991 379.921 255.916 380.22H251.366C251.404 381.069 251.604 381.732 251.968 382.208C252.332 382.675 252.85 382.908 253.522 382.908C253.886 382.908 254.26 382.847 254.642 382.726C255.034 382.605 255.342 382.46 255.566 382.292L255.916 383.062C255.664 383.333 255.254 383.585 254.684 383.818C254.124 384.042 253.555 384.154 252.976 384.154ZM254.068 379.38C254.087 379.119 254.096 378.918 254.096 378.778C254.096 377.537 253.681 376.916 252.85 376.916C252.393 376.916 252.038 377.098 251.786 377.462C251.534 377.826 251.394 378.465 251.366 379.38H254.068ZM258.392 387.486C258.224 387.486 258.042 387.472 257.846 387.444C257.659 387.416 257.524 387.383 257.44 387.346V385.848C257.505 385.885 257.636 385.923 257.832 385.96C258.028 385.997 258.205 386.016 258.364 386.016C258.83 386.016 259.213 385.862 259.512 385.554C259.82 385.246 260.104 384.728 260.366 384H259.61L256.978 377.21L256.348 377.028V376.216H260.198V377.028L259.176 377.196L260.422 381.074L260.926 382.726L261.36 381.074L262.508 377.196L261.626 377.028V376.216H264.664V377.028L263.978 377.196C263.464 378.764 262.956 380.276 262.452 381.732C261.948 383.188 261.654 384.005 261.57 384.182C261.271 384.966 260.986 385.591 260.716 386.058C260.445 386.525 260.123 386.879 259.75 387.122C259.376 387.365 258.924 387.486 258.392 387.486Z" fill="#F2F2F2"/>
<circle opacity="0.5" cx="199" cy="415" r="1" fill="white"/>
<circle opacity="0.5" cx="199" cy="431" r="1" fill="white"/>
<circle opacity="0.5" cx="199" cy="447" r="1" fill="white"/>
<defs>
<linearGradient id="paint0_linear_0_1" x1="214.5" y1="482.689" x2="211.345" y2="631.034" gradientUnits="userSpaceOnUse">
<stop stop-color="white"/>
<stop offset="1" stop-color="#265FFF" stop-opacity="0"/>
</linearGradient>
<linearGradient id="paint1_linear_0_1" x1="152.595" y1="708.459" x2="155.853" y2="555.249" gradientUnits="userSpaceOnUse">
<stop stop-color="white" stop-opacity="0"/>
<stop offset="1" stop-color="white"/>
</linearGradient>
<clipPath id="clip0_0_1">
<rect x="83" y="251" width="234" height="45" fill="white"/>
</clipPath>
</defs>
</svg>
