<svg width="430" height="165" viewBox="0 0 430 165" fill="none" xmlns="http://www.w3.org/2000/svg">
<rect x="124.5" y="24.5" width="202" height="129" rx="5.5" stroke="#444444" stroke-width="3"/>
<rect x="341.5" y="83.5" width="39" height="70" rx="5.5" stroke="#444444" stroke-width="3"/>
<path d="M355 88.5C353.791 88.5 352.782 87.6411 352.55 86.5H370.45C370.218 87.6411 369.209 88.5 368 88.5H355Z" stroke="#444444" stroke-width="2.5"/>
<rect x="179" y="61" width="93" height="70" rx="2" fill="#6A6A6A"/>
<rect x="168" y="47" width="153" height="6" rx="1" fill="#1E1E1E"/>
<rect x="222.885" y="141.577" width="5.53846" height="5.53846" rx="1.5" stroke="#6A6A6A"/>
<path d="M131 47H167V145C167 146.657 165.657 148 164 148H134C132.343 148 131 146.657 131 145V47Z" fill="#2B2B2B"/>
<path d="M284 53H317C318.657 53 320 54.3431 320 56V145C320 146.657 318.657 148 317 148H287C285.343 148 284 146.657 284 145V53Z" fill="#2B2B2B"/>
<rect x="131" y="40" width="189" height="6" rx="1" fill="#2B2B2B"/>
<rect x="134.769" y="57.3845" width="13.0769" height="9.15385" rx="1" fill="#1B1B1B"/>
<rect x="134.769" y="49.5383" width="28.7692" height="3.92308" rx="1.96154" fill="#1B1B1B"/>
<rect x="134.769" y="70.4614" width="13.0769" height="9.15385" rx="1" fill="#1B1B1B"/>
<rect x="134.769" y="109.692" width="13.0769" height="9.15385" rx="1" fill="#1B1B1B"/>
<rect x="134.769" y="83.5383" width="13.0769" height="9.15385" rx="1" fill="#1B1B1B"/>
<rect x="134.769" y="122.769" width="13.0769" height="9.15385" rx="1" fill="#1B1B1B"/>
<rect x="134.769" y="96.6152" width="13.0769" height="9.15385" rx="1" fill="#1B1B1B"/>
<rect x="150.461" y="57.3845" width="13.0769" height="9.15385" rx="1" fill="#1B1B1B"/>
<rect x="150.461" y="70.4614" width="13.0769" height="9.15385" rx="1" fill="#1B1B1B"/>
<rect x="150.461" y="109.692" width="13.0769" height="9.15385" rx="1" fill="#1B1B1B"/>
<rect x="150.461" y="83.5383" width="13.0769" height="9.15385" rx="1" fill="#1B1B1B"/>
<rect x="150.461" y="96.6152" width="13.0769" height="9.15385" rx="1" fill="#1B1B1B"/>
<rect x="296" y="46" width="24" height="6" rx="1" fill="#1B1B1B"/>
<rect x="284" y="47" width="12" height="6" rx="1" fill="#2B2B2B"/>
<rect x="288" y="63" width="29" height="4" rx="1" fill="#1B1B1B"/>
<rect x="288" y="73" width="4" height="4" rx="1" fill="#1B1B1B"/>
<rect x="294" y="73" width="13" height="4" rx="1" fill="#1B1B1B"/>
<rect x="225" y="144" width="1" height="1" rx="0.5" fill="#6A6A6A"/>
<path fill-rule="evenodd" clip-rule="evenodd" d="M219.769 96.6157L223.692 103.154H215.846L219.769 96.6157Z" fill="white"/>
<path fill-rule="evenodd" clip-rule="evenodd" d="M228.923 92.6926L235.462 103.154H222.385L228.923 92.6926Z" fill="white"/>
<path fill-rule="evenodd" clip-rule="evenodd" d="M222.385 94C224.552 94 226.309 92.2435 226.309 90.0769C226.309 87.9102 224.552 86.1538 222.385 86.1538C220.219 86.1538 218.462 87.9102 218.462 90.0769C218.462 92.2435 220.219 94 222.385 94Z" fill="white"/>
<path d="M253 137.908C274.5 164.5 314 103 335.5 164.5" stroke="#AAAAAA" stroke-width="1.5" stroke-dasharray="5 6"/>
<path fill-rule="evenodd" clip-rule="evenodd" d="M133.5 35C134.881 35 136 33.8807 136 32.5C136 31.1193 134.881 30 133.5 30C132.119 30 131 31.1193 131 32.5C131 33.8807 132.119 35 133.5 35Z" fill="#444444"/>
<path fill-rule="evenodd" clip-rule="evenodd" d="M141.5 35C142.881 35 144 33.8807 144 32.5C144 31.1193 142.881 30 141.5 30C140.119 30 139 31.1193 139 32.5C139 33.8807 140.119 35 141.5 35Z" fill="#444444"/>
<path fill-rule="evenodd" clip-rule="evenodd" d="M149.5 35C150.881 35 152 33.8807 152 32.5C152 31.1193 150.881 30 149.5 30C148.119 30 147 31.1193 147 32.5C147 33.8807 148.119 35 149.5 35Z" fill="#444444"/>
<path fill-rule="evenodd" clip-rule="evenodd" d="M235.271 141.268C235.016 141.013 234.602 141.013 234.346 141.268C234.091 141.524 234.091 141.938 234.346 142.193L236.658 144.505L234.346 146.816C234.09 147.072 234.09 147.486 234.346 147.741C234.601 147.996 235.015 147.996 235.27 147.741L238.03 144.982C238.035 144.977 238.04 144.972 238.045 144.967C238.3 144.712 238.3 144.298 238.045 144.042L235.271 141.268Z" fill="#6A6A6A"/>
<path fill-rule="evenodd" clip-rule="evenodd" d="M216.196 141.268C216.451 141.013 216.865 141.013 217.121 141.268C217.376 141.524 217.376 141.938 217.121 142.193L214.809 144.505L217.121 146.816C217.376 147.072 217.376 147.486 217.121 147.741C216.866 147.996 216.452 147.996 216.196 147.741L213.437 144.982C213.432 144.977 213.427 144.972 213.422 144.967C213.167 144.712 213.167 144.298 213.422 144.042L216.196 141.268Z" fill="#6A6A6A"/>
<path d="M249.965 132.565C249.858 132.522 249.76 132.459 249.677 132.38C249.594 132.301 249.528 132.207 249.482 132.104L247.192 127.122C247.146 127.018 247.122 126.907 247.119 126.796C247.117 126.684 247.138 126.573 247.18 126.47C247.222 126.367 247.284 126.274 247.364 126.195C247.444 126.117 247.539 126.055 247.644 126.012C247.749 125.97 247.863 125.949 247.977 125.95C248.092 125.951 248.206 125.973 248.313 126.017C248.42 126.061 248.518 126.124 248.6 126.204C248.683 126.283 248.749 126.378 248.795 126.481L251.084 131.463C251.131 131.567 251.156 131.678 251.158 131.79C251.161 131.902 251.14 132.013 251.098 132.116C251.056 132.219 250.993 132.312 250.913 132.391C250.833 132.469 250.738 132.531 250.632 132.573C250.527 132.614 250.414 132.635 250.299 132.634C250.185 132.632 250.071 132.609 249.965 132.565Z" fill="#D7D7D7"/>
<path d="M253.231 123.017L243.478 114.489C243.354 114.379 243.201 114.306 243.038 114.277C242.874 114.248 242.707 114.265 242.556 114.326C242.404 114.386 242.275 114.488 242.182 114.619C242.09 114.75 242.038 114.905 242.033 115.066L241.628 127.656C241.623 127.83 241.674 128.003 241.772 128.151C241.871 128.299 242.013 128.414 242.18 128.482C242.354 128.547 242.544 128.556 242.721 128.509C242.899 128.462 243.054 128.36 243.166 128.219L246.721 123.782L252.557 124.51C252.74 124.532 252.923 124.497 253.082 124.41C253.24 124.323 253.365 124.189 253.438 124.027C253.511 123.864 253.53 123.683 253.49 123.507C253.451 123.331 253.356 123.171 253.218 123.049L253.231 123.017Z" fill="#D7D7D7"/>
<path d="M399 52C399 58.0751 394.075 63 388 63C381.925 63 377 58.0751 377 52C377 45.9249 381.925 41 388 41C394.075 41 399 45.9249 399 52ZM382.909 52C382.909 54.8118 385.188 57.0913 388 57.0913C390.812 57.0913 393.091 54.8118 393.091 52C393.091 49.1882 390.812 46.9087 388 46.9087C385.188 46.9087 382.909 49.1882 382.909 52Z" fill="#222222"/>
<path d="M24.7535 34.7141C24.7535 33.1745 26.4202 32.2123 27.7535 32.9821L52.5035 47.2715C53.8369 48.0413 53.8369 49.9658 52.5035 50.7356L27.7535 65.025C26.4202 65.7948 24.7535 64.8325 24.7535 63.2929L24.7535 34.7141Z" fill="#222222"/>
<path d="M352.665 9.36208C354.205 9.36208 355.167 11.0287 354.397 12.3621L348.499 22.5777C347.729 23.911 345.805 23.911 345.035 22.5777L339.137 12.3621C338.367 11.0287 339.33 9.36208 340.869 9.36208L352.665 9.36208Z" fill="#222222"/>
<rect x="407" y="102" width="23" height="23" rx="4" fill="#222222"/>
<rect x="46.5" y="72.5" width="63" height="82" rx="5.5" stroke="#444444" stroke-width="3"/>
<rect x="75.5" y="143.5" width="5" height="5" rx="2.5" stroke="#444444" stroke-width="3"/>
<circle cx="10" cy="109" r="10" fill="#222222"/>
<rect x="99" y="22" width="5" height="21" rx="2.5" transform="rotate(90 99 22)" fill="#222222"/>
<rect x="91" y="35" width="5" height="21" rx="2.5" transform="rotate(-180 91 35)" fill="#222222"/>
</svg>
