<svg width="364" height="183" viewBox="0 0 364 183" fill="none" xmlns="http://www.w3.org/2000/svg">
<rect x="89.5" y="48.5" width="202" height="129" rx="5.5" stroke="#444444" stroke-width="3"/>
<rect x="145.5" y="94.5" width="5.53846" height="5.53846" rx="1.5" stroke="#6A6A6A"/>
<rect x="145.5" y="106.5" width="5.53846" height="5.53846" rx="1.5" stroke="#6A6A6A"/>
<rect x="145.5" y="118.5" width="5.53846" height="5.53846" rx="1.5" stroke="#6A6A6A"/>
<rect x="145.5" y="130.5" width="5.53846" height="5.53846" rx="1.5" stroke="#6A6A6A"/>
<rect x="145.5" y="142.5" width="5.53846" height="5.53846" rx="1.5" stroke="#6A6A6A"/>
<rect x="96" y="64" width="30" height="108" rx="1" fill="#2B2B2B"/>
<rect x="130" y="64" width="153" height="8" rx="1" fill="#2B2B2B"/>
<rect x="155" y="96" width="33" height="3" rx="1" fill="#2B2B2B"/>
<rect x="212" y="96" width="59" height="3" rx="1" fill="#2B2B2B"/>
<rect x="155" y="108" width="24" height="3" rx="1" fill="#2B2B2B"/>
<rect x="223" y="108" width="48" height="3" rx="1" fill="#2B2B2B"/>
<rect x="155" y="120" width="21" height="3" rx="1" fill="#2B2B2B"/>
<rect x="226" y="120" width="45" height="3" rx="1" fill="#2B2B2B"/>
<rect x="155" y="132" width="22" height="3" rx="1" fill="#2B2B2B"/>
<rect x="228" y="132" width="43" height="3" rx="1" fill="#2B2B2B"/>
<rect x="155" y="144" width="49" height="3" rx="1" fill="#2B2B2B"/>
<rect x="233" y="144" width="38" height="3" rx="1" fill="#2B2B2B"/>
<path fill-rule="evenodd" clip-rule="evenodd" d="M98.5 59C99.8807 59 101 57.8807 101 56.5C101 55.1193 99.8807 54 98.5 54C97.1193 54 96 55.1193 96 56.5C96 57.8807 97.1193 59 98.5 59Z" fill="#444444"/>
<path fill-rule="evenodd" clip-rule="evenodd" d="M106.5 59C107.881 59 109 57.8807 109 56.5C109 55.1193 107.881 54 106.5 54C105.119 54 104 55.1193 104 56.5C104 57.8807 105.119 59 106.5 59Z" fill="#444444"/>
<path fill-rule="evenodd" clip-rule="evenodd" d="M114.5 59C115.881 59 117 57.8807 117 56.5C117 55.1193 115.881 54 114.5 54C113.119 54 112 55.1193 112 56.5C112 57.8807 113.119 59 114.5 59Z" fill="#444444"/>
<path d="M364 76C364 82.0751 359.075 87 353 87C346.925 87 342 82.0751 342 76C342 69.9249 346.925 65 353 65C359.075 65 364 69.9249 364 76ZM347.909 76C347.909 78.8118 350.188 81.0913 353 81.0913C355.812 81.0913 358.091 78.8118 358.091 76C358.091 73.1882 355.812 70.9087 353 70.9087C350.188 70.9087 347.909 73.1882 347.909 76Z" fill="#222222"/>
<path d="M15.2409 69.2634C15.2409 67.7238 16.9076 66.7615 18.2409 67.5313L38.639 79.3082C39.9724 80.078 39.9724 82.0025 38.639 82.7723L18.2409 94.5491C16.9076 95.3189 15.2409 94.3566 15.2409 92.817L15.2409 69.2634Z" fill="#222222"/>
<path d="M317.665 33.3621C319.205 33.3621 320.167 35.0287 319.397 36.3621L313.499 46.5777C312.729 47.911 310.805 47.911 310.035 46.5777L304.137 36.3621C303.367 35.0287 304.33 33.3621 305.869 33.3621L317.665 33.3621Z" fill="#222222"/>
<rect x="328.791" y="162.291" width="23" height="23" rx="4" transform="rotate(-30 328.791 162.291)" fill="#222222"/>
<rect x="183" y="12" width="19" height="19" rx="4" fill="#222222"/>
<circle cx="49" cy="169" r="10" fill="#222222"/>
<rect x="64" y="46" width="5" height="21" rx="2.5" transform="rotate(90 64 46)" fill="#222222"/>
<rect x="56" y="59" width="5" height="21" rx="2.5" transform="rotate(-180 56 59)" fill="#222222"/>
<path fill-rule="evenodd" clip-rule="evenodd" d="M200.5 138C198.137 138 195.845 137.537 193.688 136.625C191.604 135.743 189.733 134.482 188.126 132.874C186.518 131.267 185.257 129.396 184.375 127.312C183.463 125.154 183 122.862 183 120.5C183 118.137 183.463 115.846 184.375 113.688C185.257 111.604 186.518 109.733 188.126 108.126C189.733 106.518 191.604 105.257 193.688 104.375C195.846 103.463 198.137 103 200.5 103C202.862 103 205.154 103.463 207.312 104.375C209.395 105.257 211.267 106.518 212.874 108.126C214.481 109.733 215.743 111.604 216.625 113.688C217.537 115.846 218 118.137 218 120.5C218 122.862 217.537 125.154 216.625 127.312C215.743 129.396 214.481 131.267 212.874 132.874C211.267 134.482 209.395 135.743 207.312 136.625C205.154 137.537 202.862 138 200.5 138ZM200.5 105.673C192.324 105.673 185.673 112.324 185.673 120.5C185.673 128.676 192.324 135.327 200.5 135.327C208.675 135.327 215.327 128.676 215.327 120.5C215.327 112.324 208.675 105.673 200.5 105.673Z" fill="#AAAAAA"/>
<path fill-rule="evenodd" clip-rule="evenodd" d="M194.154 116.462C193.517 115.824 193.517 114.791 194.154 114.154C194.791 113.517 195.824 113.517 196.462 114.154L206.846 124.539C207.483 125.176 207.483 126.209 206.846 126.846C206.209 127.484 205.176 127.484 204.538 126.846L194.154 116.462Z" fill="#AAAAAA"/>
<path fill-rule="evenodd" clip-rule="evenodd" d="M214.994 137.302C214.357 136.665 214.357 135.631 214.994 134.994C215.631 134.357 216.665 134.357 217.302 134.994L223.956 141.649C224.594 142.286 224.594 143.319 223.956 143.956C223.319 144.594 222.286 144.594 221.649 143.956L214.994 137.302Z" fill="#AAAAAA"/>
<path fill-rule="evenodd" clip-rule="evenodd" d="M204.539 114.154C205.176 113.517 206.209 113.517 206.846 114.154C207.483 114.791 207.483 115.824 206.846 116.461L196.462 126.846C195.824 127.483 194.791 127.483 194.154 126.846C193.517 126.209 193.517 125.176 194.154 124.538L204.539 114.154Z" fill="#AAAAAA"/>
<path d="M332 130V128C332 126.939 331.579 125.922 330.828 125.172C330.078 124.421 329.061 124 328 124H320C318.939 124 317.922 124.421 317.172 125.172C316.421 125.922 316 126.939 316 128V130" stroke="#2B2B2B" stroke-width="2" stroke-linecap="round" stroke-linejoin="round"/>
<path d="M324 120C326.209 120 328 118.209 328 116C328 113.791 326.209 112 324 112C321.791 112 320 113.791 320 116C320 118.209 321.791 120 324 120Z" stroke="#2B2B2B" stroke-width="2" stroke-linecap="round" stroke-linejoin="round"/>
<path d="M270 24V22C270 20.9391 269.579 19.9217 268.828 19.1716C268.078 18.4214 267.061 18 266 18H258C256.939 18 255.922 18.4214 255.172 19.1716C254.421 19.9217 254 20.9391 254 22V24" stroke="#2B2B2B" stroke-width="2" stroke-linecap="round" stroke-linejoin="round"/>
<path d="M262 14C264.209 14 266 12.2091 266 10C266 7.79086 264.209 6 262 6C259.791 6 258 7.79086 258 10C258 12.2091 259.791 14 262 14Z" stroke="#2B2B2B" stroke-width="2" stroke-linecap="round" stroke-linejoin="round"/>
<path d="M132 21V19C132 17.9391 131.579 16.9217 130.828 16.1716C130.078 15.4214 129.061 15 128 15H120C118.939 15 117.922 15.4214 117.172 16.1716C116.421 16.9217 116 17.9391 116 19V21" stroke="#2B2B2B" stroke-width="2" stroke-linecap="round" stroke-linejoin="round"/>
<path d="M124 11C126.209 11 128 9.20914 128 7C128 4.79086 126.209 3 124 3C121.791 3 120 4.79086 120 7C120 9.20914 121.791 11 124 11Z" stroke="#2B2B2B" stroke-width="2" stroke-linecap="round" stroke-linejoin="round"/>
<path d="M52 133V131C52 129.939 51.5786 128.922 50.8284 128.172C50.0783 127.421 49.0609 127 48 127H40C38.9391 127 37.9217 127.421 37.1716 128.172C36.4214 128.922 36 129.939 36 131V133" stroke="#2B2B2B" stroke-width="2" stroke-linecap="round" stroke-linejoin="round"/>
<path d="M44 123C46.2091 123 48 121.209 48 119C48 116.791 46.2091 115 44 115C41.7909 115 40 116.791 40 119C40 121.209 41.7909 123 44 123Z" stroke="#2B2B2B" stroke-width="2" stroke-linecap="round" stroke-linejoin="round"/>
</svg>
